<?xml version="1.0" encoding="UTF-8"?><svg xmlns="http://www.w3.org/2000/svg" xmlns:xlink="http://www.w3.org/1999/xlink" height="715.8" preserveAspectRatio="xMidYMid meet" version="1.0" viewBox="0.0 0.0 1122.0 715.8" width="1122.0" zoomAndPan="magnify"><g><g><g><g><g id="change1_10"><path d="M0 0H616.31V359H0z" fill="#dadada"/></g><g id="change2_10"><path d="M611.97 0.95L611.97 354.28 0.66 354.28 0.66 360.48 616.31 360.48 616.31 359 616.31 354.28 616.31 0.95 611.97 0.95z" fill="#afaab2"/></g><g id="change3_10"><path d="M616.31 0L4.34 0 0 0 0 3.92 0 360.48 4.34 360.48 4.34 3.92 616.31 3.92 616.31 0z" fill="#fff"/></g><g id="change4_4"><path d="M3.47 2.31H612.85V42H3.47z" fill="#1903bd"/></g><g id="change1_11"><path d="M529.79 7.06H562.81V40.080000000000005H529.79z" fill="#dadada"/></g><g id="change2_11"><path d="M561.8 7.06L561.8 39.07 529.79 39.07 529.79 40.08 561.8 40.08 562.8 40.08 562.8 39.07 562.8 7.06 561.8 7.06z" fill="#afaab2"/></g><g id="change3_11"><path d="M562.8 7.06L530.79 7.06 529.79 7.06 529.79 8.06 529.79 40.08 530.79 40.08 530.79 8.06 562.8 8.06 562.8 7.06z" fill="#fff"/></g><g id="change5_7"><path d="M534.58 33.6H558.0200000000001V36.68H534.58z"/></g><g id="change1_12"><path d="M570.08 7.06H603.1V40.080000000000005H570.08z" fill="#dadada"/></g><g id="change2_12"><path d="M602.1 7.06L602.1 39.07 570.08 39.07 570.08 40.08 602.1 40.08 603.1 40.08 603.1 39.07 603.1 7.06 602.1 7.06z" fill="#afaab2"/></g><g id="change3_12"><path d="M603.1 7.06L571.08 7.06 570.08 7.06 570.08 8.06 570.08 40.08 571.08 40.08 571.08 8.06 603.1 8.06 603.1 7.06z" fill="#fff"/></g><g id="change5_8"><path d="M599.32 13.79L596.37 10.83 586.59 20.61 576.81 10.83 573.86 13.79 583.63 23.57 573.86 33.34 576.81 36.3 586.59 26.52 596.37 36.3 599.32 33.34 589.55 23.57 599.32 13.79z"/></g></g><g><g id="change1_86"><path d="M1.32 0.62H617.63V359.62H1.32z" fill="#dadada"/></g><g id="change2_85"><path d="M613.29 1.57L613.29 354.9 1.98 354.9 1.98 361.09 617.63 361.09 617.63 359.62 617.63 354.9 617.63 1.57 613.29 1.57z" fill="#afaab2"/></g><g id="change3_86"><path d="M617.63 0.62L5.67 0.62 1.32 0.62 1.32 4.54 1.32 361.09 5.67 361.09 5.67 4.54 617.63 4.54 617.63 0.62z" fill="#fff"/></g><g id="change4_29"><path d="M4.79 2.93H614.17V42.62H4.79z" fill="#1903bd"/></g><g id="change1_87"><path d="M531.11 7.67H564.13V40.690000000000005H531.11z" fill="#dadada"/></g><g id="change2_86"><path d="M563.12 7.67L563.12 39.69 531.11 39.69 531.11 40.69 563.12 40.69 564.13 40.69 564.13 39.69 564.13 7.67 563.12 7.67z" fill="#afaab2"/></g><g id="change3_87"><path d="M564.13 7.67L532.11 7.67 531.11 7.67 531.11 8.68 531.11 40.69 532.11 40.69 532.11 8.68 564.13 8.68 564.13 7.67z" fill="#fff"/></g><g id="change5_57"><path d="M535.9 34.22H559.34V37.3H535.9z"/></g><g id="change1_88"><path d="M571.4 7.67H604.42V40.690000000000005H571.4z" fill="#dadada"/></g><g id="change2_87"><path d="M603.42 7.67L603.42 39.69 571.4 39.69 571.4 40.69 603.42 40.69 604.42 40.69 604.42 39.69 604.42 7.67 603.42 7.67z" fill="#afaab2"/></g><g id="change3_88"><path d="M604.42 7.67L572.4 7.67 571.4 7.67 571.4 8.68 571.4 40.69 572.4 40.69 572.4 8.68 604.42 8.68 604.42 7.67z" fill="#fff"/></g><g id="change5_58"><path d="M600.64 14.41L597.69 11.45 587.91 21.23 578.13 11.45 575.18 14.41 584.95 24.18 575.18 33.96 578.13 36.92 587.91 27.14 597.69 36.92 600.64 33.96 590.87 24.18 600.64 14.41z"/></g></g><g><g id="change1_53"><path d="M5.18 2.44H621.4899999999999V361.44H5.18z" fill="#dadada"/></g><g id="change2_52"><path d="M617.15 3.39L617.15 356.72 5.84 356.72 5.84 362.91 621.49 362.91 621.49 361.44 621.49 356.72 621.49 3.39 617.15 3.39z" fill="#afaab2"/></g><g id="change3_53"><path d="M621.49 2.44L9.52 2.44 5.18 2.44 5.18 6.36 5.18 362.91 9.52 362.91 9.52 6.36 621.49 6.36 621.49 2.44z" fill="#fff"/></g><g id="change4_18"><path d="M8.64 4.74H618.02V44.43H8.64z" fill="#1903bd"/></g><g id="change1_54"><path d="M534.96 9.49H567.98V42.510000000000005H534.96z" fill="#dadada"/></g><g id="change2_53"><path d="M566.98 9.49L566.98 41.51 534.96 41.51 534.96 42.51 566.98 42.51 567.98 42.51 567.98 41.51 567.98 9.49 566.98 9.49z" fill="#afaab2"/></g><g id="change3_54"><path d="M567.98 9.49L535.97 9.49 534.96 9.49 534.96 10.5 534.96 42.51 535.97 42.51 535.97 10.5 567.98 10.5 567.98 9.49z" fill="#fff"/></g><g id="change5_35"><path d="M539.76 36.04H563.2V39.12H539.76z"/></g><g id="change1_55"><path d="M575.26 9.49H608.28V42.510000000000005H575.26z" fill="#dadada"/></g><g id="change2_54"><path d="M607.27 9.49L607.27 41.51 575.26 41.51 575.26 42.51 607.27 42.51 608.28 42.51 608.28 41.51 608.28 9.49 607.27 9.49z" fill="#afaab2"/></g><g id="change3_55"><path d="M608.28 9.49L576.26 9.49 575.26 9.49 575.26 10.5 575.26 42.51 576.26 42.51 576.26 10.5 608.28 10.5 608.28 9.49z" fill="#fff"/></g><g id="change5_36"><path d="M604.5 16.23L601.54 13.27 591.77 23.05 581.99 13.27 579.04 16.23 588.81 26 579.04 35.78 581.99 38.73 591.77 28.96 601.54 38.73 604.5 35.78 594.72 26 604.5 16.23z"/></g></g><g><g id="change1_13"><path d="M11.41 5.41H627.7199999999999V364.41H11.41z" fill="#dadada"/></g><g id="change2_13"><path d="M623.38 6.36L623.38 359.69 12.07 359.69 12.07 365.88 627.72 365.88 627.72 364.41 627.72 359.69 627.72 6.36 623.38 6.36z" fill="#afaab2"/></g><g id="change3_13"><path d="M627.72 5.41L15.76 5.41 11.41 5.41 11.41 9.33 11.41 365.88 15.76 365.88 15.76 9.33 627.72 9.33 627.72 5.41z" fill="#fff"/></g><g id="change4_5"><path d="M14.88 7.71H624.26V47.4H14.88z" fill="#1903bd"/></g><g id="change1_14"><path d="M541.2 12.46H574.22V45.480000000000004H541.2z" fill="#dadada"/></g><g id="change2_14"><path d="M573.21 12.46L573.21 44.48 541.2 44.48 541.2 45.48 573.21 45.48 574.22 45.48 574.22 44.48 574.22 12.46 573.21 12.46z" fill="#afaab2"/></g><g id="change3_14"><path d="M574.22 12.46L542.2 12.46 541.2 12.46 541.2 13.47 541.2 45.48 542.2 45.48 542.2 13.47 574.22 13.47 574.22 12.46z" fill="#fff"/></g><g id="change5_9"><path d="M545.99 39.01H569.4300000000001V42.089999999999996H545.99z"/></g><g id="change1_15"><path d="M581.49 12.46H614.51V45.480000000000004H581.49z" fill="#dadada"/></g><g id="change2_15"><path d="M613.51 12.46L613.51 44.48 581.49 44.48 581.49 45.48 613.51 45.48 614.51 45.48 614.51 44.48 614.51 12.46 613.51 12.46z" fill="#afaab2"/></g><g id="change3_15"><path d="M614.51 12.46L582.49 12.46 581.49 12.46 581.49 13.47 581.49 45.48 582.49 45.48 582.49 13.47 614.51 13.47 614.51 12.46z" fill="#fff"/></g><g id="change5_10"><path d="M610.73 19.2L607.78 16.24 598 26.02 588.22 16.24 585.27 19.2 595.04 28.97 585.27 38.75 588.22 41.7 598 31.93 607.78 41.7 610.73 38.75 600.96 28.97 610.73 19.2z"/></g></g><g><g id="change1_35"><path d="M19.86 9.48H636.17V368.48H19.86z" fill="#dadada"/></g><g id="change2_34"><path d="M631.83 10.43L631.83 363.76 20.52 363.76 20.52 369.95 636.17 369.95 636.17 368.48 636.17 363.76 636.17 10.43 631.83 10.43z" fill="#afaab2"/></g><g id="change3_35"><path d="M636.17 9.48L24.21 9.48 19.86 9.48 19.86 13.4 19.86 369.95 24.21 369.95 24.21 13.4 636.17 13.4 636.17 9.48z" fill="#fff"/></g><g id="change4_12"><path d="M23.33 11.79H632.71V51.48H23.33z" fill="#1903bd"/></g><g id="change1_36"><path d="M549.65 16.54H582.67V49.56H549.65z" fill="#dadada"/></g><g id="change2_35"><path d="M581.66 16.54L581.66 48.55 549.65 48.55 549.65 49.55 581.66 49.55 582.67 49.55 582.67 48.55 582.67 16.54 581.66 16.54z" fill="#afaab2"/></g><g id="change3_36"><path d="M582.67 16.54L550.65 16.54 549.65 16.54 549.65 17.54 549.65 49.55 550.65 49.55 550.65 17.54 582.67 17.54 582.67 16.54z" fill="#fff"/></g><g id="change5_23"><path d="M554.44 43.08H577.8800000000001V46.16H554.44z"/></g><g id="change1_37"><path d="M589.94 16.54H622.96V49.56H589.94z" fill="#dadada"/></g><g id="change2_36"><path d="M621.96 16.54L621.96 48.55 589.94 48.55 589.94 49.55 621.96 49.55 622.96 49.55 622.96 48.55 622.96 16.54 621.96 16.54z" fill="#afaab2"/></g><g id="change3_37"><path d="M622.96 16.54L590.94 16.54 589.94 16.54 589.94 17.54 589.94 49.55 590.94 49.55 590.94 17.54 622.96 17.54 622.96 16.54z" fill="#fff"/></g><g id="change5_24"><path d="M619.18 23.27L616.23 20.31 606.45 30.09 596.68 20.31 593.72 23.27 603.5 33.04 593.72 42.82 596.68 45.78 606.45 36 616.23 45.78 619.18 42.82 609.41 33.04 619.18 23.27z"/></g></g><g><g id="change1_90"><path d="M30.37 14.6H646.68V373.6H30.37z" fill="#dadada"/></g><g id="change2_88"><path d="M642.34 15.55L642.34 368.89 31.03 368.89 31.03 375.08 646.69 375.08 646.69 373.61 646.69 368.89 646.69 15.55 642.34 15.55z" fill="#afaab2"/></g><g id="change3_90"><path d="M646.69 14.6L34.72 14.6 30.37 14.6 30.37 18.53 30.37 375.08 34.72 375.08 34.72 18.53 646.69 18.53 646.69 14.6z" fill="#fff"/></g><g id="change4_30"><path d="M33.84 16.91H643.22V56.599999999999994H33.84z" fill="#1903bd"/></g><g id="change1_91"><path d="M560.16 21.66H593.18V54.68000000000001H560.16z" fill="#dadada"/></g><g id="change2_89"><path d="M592.17 21.66L592.17 53.68 560.16 53.68 560.16 54.68 592.17 54.68 593.18 54.68 593.18 53.68 593.18 21.66 592.17 21.66z" fill="#afaab2"/></g><g id="change3_91"><path d="M593.18 21.66L561.16 21.66 560.16 21.66 560.16 22.66 560.16 54.68 561.16 54.68 561.16 22.66 593.18 22.66 593.18 21.66z" fill="#fff"/></g><g id="change5_59"><path d="M564.95 48.21H588.3900000000001V51.29H564.95z"/></g><g id="change1_92"><path d="M600.45 21.66H633.47V54.68000000000001H600.45z" fill="#dadada"/></g><g id="change2_90"><path d="M632.47 21.66L632.47 53.68 600.45 53.68 600.45 54.68 632.47 54.68 633.47 54.68 633.47 53.68 633.47 21.66 632.47 21.66z" fill="#afaab2"/></g><g id="change3_92"><path d="M633.47 21.66L601.46 21.66 600.45 21.66 600.45 22.66 600.45 54.68 601.46 54.68 601.46 22.66 633.47 22.66 633.47 21.66z" fill="#fff"/></g><g id="change5_60"><path d="M629.69 28.39L626.74 25.44 616.96 35.21 607.19 25.44 604.23 28.39 614.01 38.17 604.23 47.95 607.19 50.9 616.96 41.13 626.74 50.9 629.69 47.95 619.92 38.17 629.69 28.39z"/></g></g><g><g id="change1_38"><path d="M42.78 20.73H659.0899999999999V379.73H42.78z" fill="#dadada"/></g><g id="change2_37"><path d="M654.75 21.68L654.75 375.02 43.44 375.02 43.44 381.21 659.1 381.21 659.1 379.74 659.1 375.02 659.1 21.68 654.75 21.68z" fill="#afaab2"/></g><g id="change3_38"><path d="M659.1 20.73L47.13 20.73 42.78 20.73 42.78 24.66 42.78 381.21 47.13 381.21 47.13 24.66 659.1 24.66 659.1 20.73z" fill="#fff"/></g><g id="change4_13"><path d="M46.25 23.04H655.63V62.73H46.25z" fill="#1903bd"/></g><g id="change1_39"><path d="M572.57 27.79H605.59V60.81H572.57z" fill="#dadada"/></g><g id="change2_38"><path d="M604.58 27.79L604.58 59.81 572.57 59.81 572.57 60.81 604.58 60.81 605.59 60.81 605.59 59.81 605.59 27.79 604.58 27.79z" fill="#afaab2"/></g><g id="change3_39"><path d="M605.59 27.79L573.57 27.79 572.57 27.79 572.57 28.79 572.57 60.81 573.57 60.81 573.57 28.79 605.59 28.79 605.59 27.79z" fill="#fff"/></g><g id="change5_25"><path d="M577.36 54.34H600.8000000000001V57.42H577.36z"/></g><g id="change1_40"><path d="M612.86 27.79H645.88V60.81H612.86z" fill="#dadada"/></g><g id="change2_39"><path d="M644.88 27.79L644.88 59.81 612.86 59.81 612.86 60.81 644.88 60.81 645.88 60.81 645.88 59.81 645.88 27.79 644.88 27.79z" fill="#afaab2"/></g><g id="change3_40"><path d="M645.88 27.79L613.87 27.79 612.86 27.79 612.86 28.79 612.86 60.81 613.87 60.81 613.87 28.79 645.88 28.79 645.88 27.79z" fill="#fff"/></g><g id="change5_26"><path d="M642.1 34.52L639.15 31.57 629.37 41.34 619.6 31.57 616.64 34.52 626.42 44.3 616.64 54.07 619.6 57.03 629.37 47.26 639.15 57.03 642.1 54.07 632.33 44.3 642.1 34.52z"/></g></g><g><g id="change1_62"><path d="M56.93 27.82H673.2399999999999V386.82H56.93z" fill="#dadada"/></g><g id="change2_61"><path d="M668.9 28.77L668.9 382.1 57.6 382.1 57.6 388.29 673.25 388.29 673.25 386.82 673.25 382.1 673.25 28.77 668.9 28.77z" fill="#afaab2"/></g><g id="change3_62"><path d="M673.25 27.82L61.28 27.82 56.93 27.82 56.93 31.74 56.93 388.29 61.28 388.29 61.28 31.74 673.25 31.74 673.25 27.82z" fill="#fff"/></g><g id="change4_21"><path d="M60.4 30.12H669.78V69.81H60.4z" fill="#1903bd"/></g><g id="change1_63"><path d="M586.72 34.87H619.74V67.89H586.72z" fill="#dadada"/></g><g id="change2_62"><path d="M618.74 34.87L618.74 66.89 586.72 66.89 586.72 67.89 618.74 67.89 619.74 67.89 619.74 66.89 619.74 34.87 618.74 34.87z" fill="#afaab2"/></g><g id="change3_63"><path d="M619.74 34.87L587.72 34.87 586.72 34.87 586.72 35.88 586.72 67.89 587.72 67.89 587.72 35.88 619.74 35.88 619.74 34.87z" fill="#fff"/></g><g id="change5_41"><path d="M591.51 61.42H614.95V64.5H591.51z"/></g><g id="change1_64"><path d="M627.01 34.87H660.03V67.89H627.01z" fill="#dadada"/></g><g id="change2_63"><path d="M659.03 34.87L659.03 66.89 627.01 66.89 627.01 67.89 659.03 67.89 660.03 67.89 660.03 66.89 660.03 34.87 659.03 34.87z" fill="#afaab2"/></g><g id="change3_64"><path d="M660.03 34.87L628.02 34.87 627.01 34.87 627.01 35.88 627.01 67.89 628.02 67.89 628.02 35.88 660.03 35.88 660.03 34.87z" fill="#fff"/></g><g id="change5_42"><path d="M656.26 41.61L653.3 38.65 643.52 48.43 633.75 38.65 630.79 41.61 640.57 51.38 630.79 61.16 633.75 64.11 643.52 54.34 653.3 64.11 656.26 61.16 646.48 51.38 656.26 41.61z"/></g></g><g><g id="change1_16"><path d="M72.67 35.8H688.9799999999999V394.8H72.67z" fill="#dadada"/></g><g id="change2_16"><path d="M684.64 36.75L684.64 390.09 73.33 390.09 73.33 396.28 688.98 396.28 688.98 394.81 688.98 390.09 688.98 36.75 684.64 36.75z" fill="#afaab2"/></g><g id="change3_16"><path d="M688.98 35.8L77.01 35.8 72.67 35.8 72.67 39.73 72.67 396.28 77.01 396.28 77.01 39.73 688.98 39.73 688.98 35.8z" fill="#fff"/></g><g id="change4_6"><path d="M76.13 38.11H685.51V77.8H76.13z" fill="#1903bd"/></g><g id="change1_17"><path d="M602.45 42.86H635.47V75.88H602.45z" fill="#dadada"/></g><g id="change2_17"><path d="M634.47 42.86L634.47 74.88 602.45 74.88 602.45 75.88 634.47 75.88 635.47 75.88 635.47 74.88 635.47 42.86 634.47 42.86z" fill="#afaab2"/></g><g id="change3_17"><path d="M635.47 42.86L603.46 42.86 602.45 42.86 602.45 43.86 602.45 75.88 603.46 75.88 603.46 43.86 635.47 43.86 635.47 42.86z" fill="#fff"/></g><g id="change5_11"><path d="M607.25 69.41H630.69V72.49H607.25z"/></g><g id="change1_18"><path d="M642.75 42.86H675.77V75.88H642.75z" fill="#dadada"/></g><g id="change2_18"><path d="M674.76 42.86L674.76 74.88 642.75 74.88 642.75 75.88 674.76 75.88 675.77 75.88 675.77 74.88 675.77 42.86 674.76 42.86z" fill="#afaab2"/></g><g id="change3_18"><path d="M675.77 42.86L643.75 42.86 642.75 42.86 642.75 43.86 642.75 75.88 643.75 75.88 643.75 43.86 675.77 43.86 675.77 42.86z" fill="#fff"/></g><g id="change5_12"><path d="M671.99 49.59L669.03 46.64 659.26 56.41 649.48 46.64 646.53 49.59 656.3 59.37 646.53 69.14 649.48 72.1 659.26 62.33 669.03 72.1 671.99 69.14 662.21 59.37 671.99 49.59z"/></g></g><g><g id="change1_47"><path d="M89.83 44.64H706.14V403.64H89.83z" fill="#dadada"/></g><g id="change2_46"><path d="M701.79 45.6L701.79 398.93 90.49 398.93 90.49 405.12 706.14 405.12 706.14 403.65 706.14 398.93 706.14 45.6 701.79 45.6z" fill="#afaab2"/></g><g id="change3_47"><path d="M706.14 44.64L94.17 44.64 89.83 44.64 89.83 48.57 89.83 405.12 94.17 405.12 94.17 48.57 706.14 48.57 706.14 44.64z" fill="#fff"/></g><g id="change4_16"><path d="M93.29 46.95H702.67V86.64H93.29z" fill="#1903bd"/></g><g id="change1_48"><path d="M619.61 51.7H652.63V84.72H619.61z" fill="#dadada"/></g><g id="change2_47"><path d="M651.63 51.7L651.63 83.72 619.61 83.72 619.61 84.72 651.63 84.72 652.63 84.72 652.63 83.72 652.63 51.7 651.63 51.7z" fill="#afaab2"/></g><g id="change3_48"><path d="M652.63 51.7L620.61 51.7 619.61 51.7 619.61 52.7 619.61 84.72 620.61 84.72 620.61 52.7 652.63 52.7 652.63 51.7z" fill="#fff"/></g><g id="change5_31"><path d="M624.4 78.25H647.84V81.33H624.4z"/></g><g id="change1_49"><path d="M659.91 51.7H692.93V84.72H659.91z" fill="#dadada"/></g><g id="change2_48"><path d="M691.92 51.7L691.92 83.72 659.91 83.72 659.91 84.72 691.92 84.72 692.92 84.72 692.92 83.72 692.92 51.7 691.92 51.7z" fill="#afaab2"/></g><g id="change3_49"><path d="M692.92 51.7L660.91 51.7 659.91 51.7 659.91 52.7 659.91 84.72 660.91 84.72 660.91 52.7 692.92 52.7 692.92 51.7z" fill="#fff"/></g><g id="change5_32"><path d="M689.15 58.44L686.19 55.48 676.41 65.25 666.64 55.48 663.68 58.44 673.46 68.21 663.68 77.99 666.64 80.94 676.41 71.17 686.19 80.94 689.15 77.99 679.37 68.21 689.15 58.44z"/></g></g><g><g id="change1_7"><path d="M108.25 54.29H724.56V413.29H108.25z" fill="#dadada"/></g><g id="change2_7"><path d="M720.21 55.24L720.21 408.58 108.91 408.58 108.91 414.77 724.56 414.77 724.56 413.3 724.56 408.58 724.56 55.24 720.21 55.24z" fill="#afaab2"/></g><g id="change3_7"><path d="M724.56 54.29L112.59 54.29 108.25 54.29 108.25 58.22 108.25 414.77 112.59 414.77 112.59 58.22 724.56 58.22 724.56 54.29z" fill="#fff"/></g><g id="change4_3"><path d="M111.71 56.6H721.09V96.28999999999999H111.71z" fill="#1903bd"/></g><g id="change1_8"><path d="M638.03 61.35H671.05V94.37H638.03z" fill="#dadada"/></g><g id="change2_8"><path d="M670.05 61.35L670.05 93.37 638.03 93.37 638.03 94.37 670.05 94.37 671.05 94.37 671.05 93.37 671.05 61.35 670.05 61.35z" fill="#afaab2"/></g><g id="change3_8"><path d="M671.05 61.35L639.03 61.35 638.03 61.35 638.03 62.35 638.03 94.37 639.03 94.37 639.03 62.35 671.05 62.35 671.05 61.35z" fill="#fff"/></g><g id="change5_5"><path d="M642.82 87.9H666.2600000000001V90.98H642.82z"/></g><g id="change1_9"><path d="M678.33 61.35H711.35V94.37H678.33z" fill="#dadada"/></g><g id="change2_9"><path d="M710.34 61.35L710.34 93.37 678.33 93.37 678.33 94.37 710.34 94.37 711.35 94.37 711.35 93.37 711.35 61.35 710.34 61.35z" fill="#afaab2"/></g><g id="change3_9"><path d="M711.35 61.35L679.33 61.35 678.33 61.35 678.33 62.35 678.33 94.37 679.33 94.37 679.33 62.35 711.35 62.35 711.35 61.35z" fill="#fff"/></g><g id="change5_6"><path d="M707.57 68.08L704.61 65.13 694.84 74.9 685.06 65.13 682.1 68.08 691.88 77.86 682.1 87.63 685.06 90.59 694.84 80.81 704.61 90.59 707.57 87.63 697.79 77.86 707.57 68.08z"/></g></g><g><g id="change1_1"><path d="M127.77 64.7H744.0799999999999V423.7H127.77z" fill="#dadada"/></g><g id="change2_1"><path d="M739.74 65.65L739.74 418.98 128.43 418.98 128.43 425.17 744.09 425.17 744.09 423.7 744.09 418.98 744.09 65.65 739.74 65.65z" fill="#afaab2"/></g><g id="change3_1"><path d="M744.09 64.7L132.12 64.7 127.77 64.7 127.77 68.62 127.77 425.17 132.12 425.17 132.12 68.62 744.09 68.62 744.09 64.7z" fill="#fff"/></g><g id="change4_1"><path d="M131.24 67H740.62V106.69H131.24z" fill="#1903bd"/></g><g id="change1_2"><path d="M657.56 71.75H690.5799999999999V104.77000000000001H657.56z" fill="#dadada"/></g><g id="change2_2"><path d="M689.58 71.75L689.58 103.77 657.56 103.77 657.56 104.77 689.58 104.77 690.58 104.77 690.58 103.77 690.58 71.75 689.58 71.75z" fill="#afaab2"/></g><g id="change3_2"><path d="M690.58 71.75L658.56 71.75 657.56 71.75 657.56 72.76 657.56 104.77 658.56 104.77 658.56 72.76 690.58 72.76 690.58 71.75z" fill="#fff"/></g><g id="change5_1"><path d="M662.35 98.3H685.7900000000001V101.38H662.35z"/></g><g id="change1_3"><path d="M697.85 71.75H730.87V104.77000000000001H697.85z" fill="#dadada"/></g><g id="change2_3"><path d="M729.87 71.75L729.87 103.77 697.85 103.77 697.85 104.77 729.87 104.77 730.87 104.77 730.87 103.77 730.87 71.75 729.87 71.75z" fill="#afaab2"/></g><g id="change3_3"><path d="M730.87 71.75L698.86 71.75 697.85 71.75 697.85 72.76 697.85 104.77 698.86 104.77 698.86 72.76 730.87 72.76 730.87 71.75z" fill="#fff"/></g><g id="change5_2"><path d="M727.09 78.49L724.14 75.53 714.36 85.31 704.59 75.53 701.63 78.49 711.41 88.26 701.63 98.04 704.59 100.99 714.36 91.22 724.14 100.99 727.09 98.04 717.32 88.26 727.09 78.49z"/></g></g><g><g id="change1_4"><path d="M148.25 75.81H764.56V434.81H148.25z" fill="#dadada"/></g><g id="change2_4"><path d="M760.21 76.76L760.21 430.09 148.91 430.09 148.91 436.28 764.56 436.28 764.56 434.81 764.56 430.09 764.56 76.76 760.21 76.76z" fill="#afaab2"/></g><g id="change3_4"><path d="M764.56 75.81L152.59 75.81 148.25 75.81 148.25 79.73 148.25 436.28 152.59 436.28 152.59 79.73 764.56 79.73 764.56 75.81z" fill="#fff"/></g><g id="change4_2"><path d="M151.71 78.11H761.09V117.8H151.71z" fill="#1903bd"/></g><g id="change1_5"><path d="M678.03 82.86H711.05V115.88H678.03z" fill="#dadada"/></g><g id="change2_5"><path d="M710.05 82.86L710.05 114.88 678.03 114.88 678.03 115.88 710.05 115.88 711.05 115.88 711.05 114.88 711.05 82.86 710.05 82.86z" fill="#afaab2"/></g><g id="change3_5"><path d="M711.05 82.86L679.04 82.86 678.03 82.86 678.03 83.87 678.03 115.88 679.04 115.88 679.04 83.87 711.05 83.87 711.05 82.86z" fill="#fff"/></g><g id="change5_3"><path d="M682.82 109.41H706.2600000000001V112.49H682.82z"/></g><g id="change1_6"><path d="M718.33 82.86H751.35V115.88H718.33z" fill="#dadada"/></g><g id="change2_6"><path d="M750.34 82.86L750.34 114.88 718.33 114.88 718.33 115.88 750.34 115.88 751.35 115.88 751.35 114.88 751.35 82.86 750.34 82.86z" fill="#afaab2"/></g><g id="change3_6"><path d="M751.35 82.86L719.33 82.86 718.33 82.86 718.33 83.87 718.33 115.88 719.33 115.88 719.33 83.87 751.35 83.87 751.35 82.86z" fill="#fff"/></g><g id="change5_4"><path d="M747.57 89.6L744.61 86.64 734.84 96.42 725.06 86.64 722.1 89.6 731.88 99.37 722.1 109.15 725.06 112.1 734.84 102.33 744.61 112.1 747.57 109.15 737.79 99.37 747.57 89.6z"/></g></g><g><g id="change1_74"><path d="M169.51 87.57H785.8199999999999V446.57H169.51z" fill="#dadada"/></g><g id="change2_73"><path d="M781.48 88.52L781.48 441.86 170.17 441.86 170.17 448.05 785.82 448.05 785.82 446.58 785.82 441.86 785.82 88.52 781.48 88.52z" fill="#afaab2"/></g><g id="change3_74"><path d="M785.82 87.57L173.85 87.57 169.51 87.57 169.51 91.5 169.51 448.05 173.85 448.05 173.85 91.5 785.82 91.5 785.82 87.57z" fill="#fff"/></g><g id="change4_25"><path d="M172.97 89.88H782.35V129.57H172.97z" fill="#1903bd"/></g><g id="change1_75"><path d="M699.29 94.63H732.31V127.65H699.29z" fill="#dadada"/></g><g id="change2_74"><path d="M731.31 94.63L731.31 126.65 699.29 126.65 699.29 127.65 731.31 127.65 732.31 127.65 732.31 126.65 732.31 94.63 731.31 94.63z" fill="#afaab2"/></g><g id="change3_75"><path d="M732.31 94.63L700.3 94.63 699.29 94.63 699.29 95.63 699.29 127.65 700.3 127.65 700.3 95.63 732.31 95.63 732.31 94.63z" fill="#fff"/></g><g id="change5_49"><path d="M704.09 121.18H727.5300000000001V124.26H704.09z"/></g><g id="change1_76"><path d="M739.59 94.63H772.61V127.65H739.59z" fill="#dadada"/></g><g id="change2_75"><path d="M771.6 94.63L771.6 126.65 739.59 126.65 739.59 127.65 771.6 127.65 772.61 127.65 772.61 126.65 772.61 94.63 771.6 94.63z" fill="#afaab2"/></g><g id="change3_76"><path d="M772.61 94.63L740.59 94.63 739.59 94.63 739.59 95.63 739.59 127.65 740.59 127.65 740.59 95.63 772.61 95.63 772.61 94.63z" fill="#fff"/></g><g id="change5_50"><path d="M768.83 101.36L765.87 98.41 756.1 108.18 746.32 98.41 743.37 101.36 753.14 111.14 743.37 120.91 746.32 123.87 756.1 114.09 765.87 123.87 768.83 120.91 759.05 111.14 768.83 101.36z"/></g></g><g><g id="change1_41"><path d="M191.4 99.95H807.7099999999999V458.95H191.4z" fill="#dadada"/></g><g id="change2_40"><path d="M803.37 100.9L803.37 454.23 192.06 454.23 192.06 460.42 807.71 460.42 807.71 458.95 807.71 454.23 807.71 100.9 803.37 100.9z" fill="#afaab2"/></g><g id="change3_41"><path d="M807.71 99.95L195.74 99.95 191.4 99.95 191.4 103.87 191.4 460.42 195.74 460.42 195.74 103.87 807.71 103.87 807.71 99.95z" fill="#fff"/></g><g id="change4_14"><path d="M194.86 102.26H804.24V141.95H194.86z" fill="#1903bd"/></g><g id="change1_42"><path d="M721.18 107H754.1999999999999V140.02H721.18z" fill="#dadada"/></g><g id="change2_41"><path d="M753.2 107L753.2 139.02 721.18 139.02 721.18 140.02 753.2 140.02 754.2 140.02 754.2 139.02 754.2 107 753.2 107z" fill="#afaab2"/></g><g id="change3_42"><path d="M754.2 107L722.19 107 721.18 107 721.18 108.01 721.18 140.02 722.19 140.02 722.19 108.01 754.2 108.01 754.2 107z" fill="#fff"/></g><g id="change5_27"><path d="M725.97 133.55H749.4100000000001V136.63000000000002H725.97z"/></g><g id="change1_43"><path d="M761.48 107H794.5V140.02H761.48z" fill="#dadada"/></g><g id="change2_42"><path d="M793.49 107L793.49 139.02 761.48 139.02 761.48 140.02 793.49 140.02 794.5 140.02 794.5 139.02 794.5 107 793.49 107z" fill="#afaab2"/></g><g id="change3_43"><path d="M794.5 107L762.48 107 761.48 107 761.48 108.01 761.48 140.02 762.48 140.02 762.48 108.01 794.5 108.01 794.5 107z" fill="#fff"/></g><g id="change5_28"><path d="M790.72 113.74L787.76 110.78 777.99 120.56 768.21 110.78 765.25 113.74 775.03 123.51 765.25 133.29 768.21 136.24 777.99 126.47 787.76 136.24 790.72 133.29 780.94 123.51 790.72 113.74z"/></g></g><g><g id="change1_65"><path d="M213.76 112.88H830.0699999999999V471.88H213.76z" fill="#dadada"/></g><g id="change2_64"><path d="M825.72 113.83L825.72 467.16 214.42 467.16 214.42 473.36 830.07 473.36 830.07 471.88 830.07 467.16 830.07 113.83 825.72 113.83z" fill="#afaab2"/></g><g id="change3_65"><path d="M830.07 112.88L218.1 112.88 213.76 112.88 213.76 116.8 213.76 473.36 218.1 473.36 218.1 116.8 830.07 116.8 830.07 112.88z" fill="#fff"/></g><g id="change4_22"><path d="M217.22 115.19H826.6V154.88H217.22z" fill="#1903bd"/></g><g id="change1_66"><path d="M743.54 119.94H776.56V152.96H743.54z" fill="#dadada"/></g><g id="change2_65"><path d="M775.56 119.94L775.56 151.95 743.54 151.95 743.54 152.95 775.56 152.95 776.56 152.95 776.56 151.95 776.56 119.94 775.56 119.94z" fill="#afaab2"/></g><g id="change3_66"><path d="M776.56 119.94L744.54 119.94 743.54 119.94 743.54 120.94 743.54 152.95 744.54 152.95 744.54 120.94 776.56 120.94 776.56 119.94z" fill="#fff"/></g><g id="change5_43"><path d="M748.33 146.48H771.7700000000001V149.56H748.33z"/></g><g id="change1_67"><path d="M783.84 119.94H816.86V152.96H783.84z" fill="#dadada"/></g><g id="change2_66"><path d="M815.85 119.94L815.85 151.95 783.84 151.95 783.84 152.95 815.85 152.95 816.86 152.95 816.86 151.95 816.86 119.94 815.85 119.94z" fill="#afaab2"/></g><g id="change3_67"><path d="M816.86 119.94L784.84 119.94 783.84 119.94 783.84 120.94 783.84 152.95 784.84 152.95 784.84 120.94 816.86 120.94 816.86 119.94z" fill="#fff"/></g><g id="change5_44"><path d="M813.08 126.67L810.12 123.71 800.35 133.49 790.57 123.71 787.61 126.67 797.39 136.45 787.61 146.22 790.57 149.18 800.35 139.4 810.12 149.18 813.08 146.22 803.3 136.45 813.08 126.67z"/></g></g><g><g id="change1_77"><path d="M236.43 126.32H852.74V485.32H236.43z" fill="#dadada"/></g><g id="change2_76"><path d="M848.39 127.27L848.39 480.6 237.09 480.6 237.09 486.8 852.74 486.8 852.74 485.32 852.74 480.6 852.74 127.27 848.39 127.27z" fill="#afaab2"/></g><g id="change3_77"><path d="M852.74 126.32L240.77 126.32 236.43 126.32 236.43 130.24 236.43 486.8 240.77 486.8 240.77 130.24 852.74 130.24 852.74 126.32z" fill="#fff"/></g><g id="change4_26"><path d="M239.89 128.63H849.27V168.32H239.89z" fill="#1903bd"/></g><g id="change1_78"><path d="M766.21 133.38H799.23V166.4H766.21z" fill="#dadada"/></g><g id="change2_77"><path d="M798.23 133.38L798.23 165.39 766.21 165.39 766.21 166.4 798.23 166.4 799.23 166.4 799.23 165.39 799.23 133.38 798.23 133.38z" fill="#afaab2"/></g><g id="change3_78"><path d="M799.23 133.38L767.22 133.38 766.21 133.38 766.21 134.38 766.21 166.4 767.22 166.4 767.22 134.38 799.23 134.38 799.23 133.38z" fill="#fff"/></g><g id="change5_51"><path d="M771 159.92H794.44V163H771z"/></g><g id="change1_79"><path d="M806.51 133.38H839.53V166.4H806.51z" fill="#dadada"/></g><g id="change2_78"><path d="M838.52 133.38L838.52 165.39 806.51 165.39 806.51 166.4 838.52 166.4 839.53 166.4 839.53 165.39 839.53 133.38 838.52 133.38z" fill="#afaab2"/></g><g id="change3_79"><path d="M839.53 133.38L807.51 133.38 806.51 133.38 806.51 134.38 806.51 166.4 807.51 166.4 807.51 134.38 839.53 134.38 839.53 133.38z" fill="#fff"/></g><g id="change5_52"><path d="M835.75 140.11L832.79 137.15 823.02 146.93 813.24 137.15 810.28 140.11 820.06 149.89 810.28 159.66 813.24 162.62 823.02 152.84 832.79 162.62 835.75 159.66 825.97 149.89 835.75 140.11z"/></g></g><g><g id="change1_44"><path d="M259.25 140.22H875.56V499.22H259.25z" fill="#dadada"/></g><g id="change2_43"><path d="M871.22 141.17L871.22 494.5 259.91 494.5 259.91 500.7 875.56 500.7 875.56 499.22 875.56 494.5 875.56 141.17 871.22 141.17z" fill="#afaab2"/></g><g id="change3_44"><path d="M875.56 140.22L263.59 140.22 259.25 140.22 259.25 144.14 259.25 500.7 263.59 500.7 263.59 144.14 875.56 144.14 875.56 140.22z" fill="#fff"/></g><g id="change4_15"><path d="M262.72 142.53H872.1V182.22H262.72z" fill="#1903bd"/></g><g id="change1_45"><path d="M789.03 147.28H822.05V180.3H789.03z" fill="#dadada"/></g><g id="change2_44"><path d="M821.05 147.28L821.05 179.29 789.03 179.29 789.03 180.3 821.05 180.3 822.05 180.3 822.05 179.29 822.05 147.28 821.05 147.28z" fill="#afaab2"/></g><g id="change3_45"><path d="M822.05 147.28L790.04 147.28 789.03 147.28 789.03 148.28 789.03 180.3 790.04 180.3 790.04 148.28 822.05 148.28 822.05 147.28z" fill="#fff"/></g><g id="change5_29"><path d="M793.83 173.82H817.2700000000001V176.9H793.83z"/></g><g id="change1_46"><path d="M829.33 147.28H862.35V180.3H829.33z" fill="#dadada"/></g><g id="change2_45"><path d="M861.35 147.28L861.35 179.29 829.33 179.29 829.33 180.3 861.35 180.3 862.35 180.3 862.35 179.29 862.35 147.28 861.35 147.28z" fill="#afaab2"/></g><g id="change3_46"><path d="M862.35 147.28L830.33 147.28 829.33 147.28 829.33 148.28 829.33 180.3 830.33 180.3 830.33 148.28 862.35 148.28 862.35 147.28z" fill="#fff"/></g><g id="change5_30"><path d="M858.57 154.01L855.61 151.05 845.84 160.83 836.06 151.05 833.11 154.01 842.88 163.79 833.11 173.56 836.06 176.52 845.84 166.74 855.61 176.52 858.57 173.56 848.79 163.79 858.57 154.01z"/></g></g><g><g id="change1_29"><path d="M282.06 154.53H898.3699999999999V513.53H282.06z" fill="#dadada"/></g><g id="change2_28"><path d="M894.03 155.48L894.03 508.81 282.73 508.81 282.73 515 898.38 515 898.38 513.53 898.38 508.81 898.38 155.48 894.03 155.48z" fill="#afaab2"/></g><g id="change3_29"><path d="M898.38 154.53L286.41 154.53 282.06 154.53 282.06 158.45 282.06 515 286.41 515 286.41 158.45 898.38 158.45 898.38 154.53z" fill="#fff"/></g><g id="change4_10"><path d="M285.53 156.84H894.91V196.53H285.53z" fill="#1903bd"/></g><g id="change1_30"><path d="M811.85 161.59H844.87V194.61H811.85z" fill="#dadada"/></g><g id="change2_29"><path d="M843.87 161.59L843.87 193.6 811.85 193.6 811.85 194.6 843.87 194.6 844.87 194.6 844.87 193.6 844.87 161.59 843.87 161.59z" fill="#afaab2"/></g><g id="change3_30"><path d="M844.87 161.59L812.85 161.59 811.85 161.59 811.85 162.59 811.85 194.6 812.85 194.6 812.85 162.59 844.87 162.59 844.87 161.59z" fill="#fff"/></g><g id="change5_19"><path d="M816.64 188.13H840.08V191.21H816.64z"/></g><g id="change1_31"><path d="M852.14 161.59H885.16V194.61H852.14z" fill="#dadada"/></g><g id="change2_30"><path d="M884.16 161.59L884.16 193.6 852.14 193.6 852.14 194.6 884.16 194.6 885.16 194.6 885.16 193.6 885.16 161.59 884.16 161.59z" fill="#afaab2"/></g><g id="change3_31"><path d="M885.16 161.59L853.15 161.59 852.14 161.59 852.14 162.59 852.14 194.6 853.15 194.6 853.15 162.59 885.16 162.59 885.16 161.59z" fill="#fff"/></g><g id="change5_20"><path d="M881.39 168.32L878.43 165.36 868.65 175.14 858.88 165.36 855.92 168.32 865.7 178.09 855.92 187.87 858.88 190.83 868.65 181.05 878.43 190.83 881.39 187.87 871.61 178.09 881.39 168.32z"/></g></g><g><g id="change1_19"><path d="M304.71 169.2H921.02V528.2H304.71z" fill="#dadada"/></g><g id="change2_19"><path d="M916.68 170.15L916.68 523.48 305.37 523.48 305.37 529.67 921.03 529.67 921.03 528.2 921.03 523.48 921.03 170.15 916.68 170.15z" fill="#afaab2"/></g><g id="change3_19"><path d="M921.03 169.2L309.06 169.2 304.71 169.2 304.71 173.12 304.71 529.67 309.06 529.67 309.06 173.12 921.03 173.12 921.03 169.2z" fill="#fff"/></g><g id="change4_7"><path d="M308.18 171.51H917.56V211.2H308.18z" fill="#1903bd"/></g><g id="change1_20"><path d="M834.5 176.25H867.52V209.27H834.5z" fill="#dadada"/></g><g id="change2_20"><path d="M866.51 176.25L866.51 208.27 834.5 208.27 834.5 209.27 866.51 209.27 867.52 209.27 867.52 208.27 867.52 176.25 866.51 176.25z" fill="#afaab2"/></g><g id="change3_20"><path d="M867.52 176.25L835.5 176.25 834.5 176.25 834.5 177.26 834.5 209.27 835.5 209.27 835.5 177.26 867.52 177.26 867.52 176.25z" fill="#fff"/></g><g id="change5_13"><path d="M839.29 202.8H862.73V205.88000000000002H839.29z"/></g><g id="change1_21"><path d="M874.79 176.25H907.81V209.27H874.79z" fill="#dadada"/></g><g id="change2_21"><path d="M906.81 176.25L906.81 208.27 874.79 208.27 874.79 209.27 906.81 209.27 907.81 209.27 907.81 208.27 907.81 176.25 906.81 176.25z" fill="#afaab2"/></g><g id="change3_21"><path d="M907.81 176.25L875.8 176.25 874.79 176.25 874.79 177.26 874.79 209.27 875.8 209.27 875.8 177.26 907.81 177.26 907.81 176.25z" fill="#fff"/></g><g id="change5_14"><path d="M904.03 182.99L901.08 180.03 891.3 189.81 881.53 180.03 878.57 182.99 888.35 192.76 878.57 202.54 881.53 205.5 891.3 195.72 901.08 205.5 904.03 202.54 894.26 192.76 904.03 182.99z"/></g></g><g><g id="change1_56"><path d="M327.04 184.18H943.3499999999999V543.1800000000001H327.04z" fill="#dadada"/></g><g id="change2_55"><path d="M939.01 185.13L939.01 538.46 327.7 538.46 327.7 544.65 943.35 544.65 943.35 543.18 943.35 538.46 943.35 185.13 939.01 185.13z" fill="#afaab2"/></g><g id="change3_56"><path d="M943.35 184.18L331.38 184.18 327.04 184.18 327.04 188.1 327.04 544.65 331.38 544.65 331.38 188.1 943.35 188.1 943.35 184.18z" fill="#fff"/></g><g id="change4_19"><path d="M330.5 186.49H939.88V226.18H330.5z" fill="#1903bd"/></g><g id="change1_57"><path d="M856.82 191.23H889.84V224.25H856.82z" fill="#dadada"/></g><g id="change2_56"><path d="M888.84 191.23L888.84 223.25 856.82 223.25 856.82 224.25 888.84 224.25 889.84 224.25 889.84 223.25 889.84 191.23 888.84 191.23z" fill="#afaab2"/></g><g id="change3_57"><path d="M889.84 191.23L857.83 191.23 856.82 191.23 856.82 192.24 856.82 224.25 857.83 224.25 857.83 192.24 889.84 192.24 889.84 191.23z" fill="#fff"/></g><g id="change5_37"><path d="M861.61 217.78H885.0500000000001V220.86H861.61z"/></g><g id="change1_58"><path d="M897.12 191.23H930.14V224.25H897.12z" fill="#dadada"/></g><g id="change2_57"><path d="M929.13 191.23L929.13 223.25 897.12 223.25 897.12 224.25 929.13 224.25 930.14 224.25 930.14 223.25 930.14 191.23 929.13 191.23z" fill="#afaab2"/></g><g id="change3_58"><path d="M930.14 191.23L898.12 191.23 897.12 191.23 897.12 192.24 897.12 224.25 898.12 224.25 898.12 192.24 930.14 192.24 930.14 191.23z" fill="#fff"/></g><g id="change5_38"><path d="M926.36 197.97L923.4 195.01 913.63 204.79 903.85 195.01 900.89 197.97 910.67 207.74 900.89 217.52 903.85 220.48 913.63 210.7 923.4 220.48 926.36 217.52 916.58 207.74 926.36 197.97z"/></g></g><g><g id="change1_50"><path d="M348.88 199.42H965.1899999999999V558.42H348.88z" fill="#dadada"/></g><g id="change2_49"><path d="M960.85 200.37L960.85 553.7 349.54 553.7 349.54 559.9 965.19 559.9 965.19 558.42 965.19 553.7 965.19 200.37 960.85 200.37z" fill="#afaab2"/></g><g id="change3_50"><path d="M965.19 199.42L353.22 199.42 348.88 199.42 348.88 203.34 348.88 559.9 353.22 559.9 353.22 203.34 965.19 203.34 965.19 199.42z" fill="#fff"/></g><g id="change4_17"><path d="M352.34 201.73H961.72V241.42H352.34z" fill="#1903bd"/></g><g id="change1_51"><path d="M878.66 206.48H911.68V239.5H878.66z" fill="#dadada"/></g><g id="change2_50"><path d="M910.68 206.48L910.68 238.49 878.66 238.49 878.66 239.49 910.68 239.49 911.68 239.49 911.68 238.49 911.68 206.48 910.68 206.48z" fill="#afaab2"/></g><g id="change3_51"><path d="M911.68 206.48L879.67 206.48 878.66 206.48 878.66 207.48 878.66 239.49 879.67 239.49 879.67 207.48 911.68 207.48 911.68 206.48z" fill="#fff"/></g><g id="change5_33"><path d="M883.46 233.02H906.9000000000001V236.10000000000002H883.46z"/></g><g id="change1_52"><path d="M918.96 206.48H951.98V239.5H918.96z" fill="#dadada"/></g><g id="change2_51"><path d="M950.97 206.48L950.97 238.49 918.96 238.49 918.96 239.49 950.97 239.49 951.98 239.49 951.98 238.49 951.98 206.48 950.97 206.48z" fill="#afaab2"/></g><g id="change3_52"><path d="M951.98 206.48L919.96 206.48 918.96 206.48 918.96 207.48 918.96 239.49 919.96 239.49 919.96 207.48 951.98 207.48 951.98 206.48z" fill="#fff"/></g><g id="change5_34"><path d="M948.2 213.21L945.24 210.25 935.47 220.03 925.69 210.25 922.74 213.21 932.51 222.99 922.74 232.76 925.69 235.72 935.47 225.94 945.24 235.72 948.2 232.76 938.42 222.99 948.2 213.21z"/></g></g><g><g id="change1_83"><path d="M370.08 214.87H986.3899999999999V573.87H370.08z" fill="#dadada"/></g><g id="change2_82"><path d="M982.04 215.82L982.04 569.15 370.74 569.15 370.74 575.35 986.39 575.35 986.39 573.87 986.39 569.15 986.39 215.82 982.04 215.82z" fill="#afaab2"/></g><g id="change3_83"><path d="M986.39 214.87L374.42 214.87 370.08 214.87 370.08 218.8 370.08 575.35 374.42 575.35 374.42 218.8 986.39 218.8 986.39 214.87z" fill="#fff"/></g><g id="change4_28"><path d="M373.54 217.18H982.9200000000001V256.87H373.54z" fill="#1903bd"/></g><g id="change1_84"><path d="M899.86 221.93H932.88V254.95000000000002H899.86z" fill="#dadada"/></g><g id="change2_83"><path d="M931.88 221.93L931.88 253.94 899.86 253.94 899.86 254.95 931.88 254.95 932.88 254.95 932.88 253.94 932.88 221.93 931.88 221.93z" fill="#afaab2"/></g><g id="change3_84"><path d="M932.88 221.93L900.86 221.93 899.86 221.93 899.86 222.93 899.86 254.95 900.86 254.95 900.86 222.93 932.88 222.93 932.88 221.93z" fill="#fff"/></g><g id="change5_55"><path d="M904.65 248.48H928.09V251.56H904.65z"/></g><g id="change1_85"><path d="M940.16 221.93H973.18V254.95000000000002H940.16z" fill="#dadada"/></g><g id="change2_84"><path d="M972.17 221.93L972.17 253.94 940.16 253.94 940.16 254.95 972.17 254.95 973.17 254.95 973.17 253.94 973.17 221.93 972.17 221.93z" fill="#afaab2"/></g><g id="change3_85"><path d="M973.17 221.93L941.16 221.93 940.16 221.93 940.16 222.93 940.16 254.95 941.16 254.95 941.16 222.93 973.17 222.93 973.17 221.93z" fill="#fff"/></g><g id="change5_56"><path d="M969.4 228.66L966.44 225.71 956.66 235.48 946.89 225.71 943.93 228.66 953.71 238.44 943.93 248.21 946.89 251.17 956.66 241.39 966.44 251.17 969.4 248.21 959.62 238.44 969.4 228.66z"/></g></g><g><g id="change1_32"><path d="M390.47 230.49H1006.78V589.49H390.47z" fill="#dadada"/></g><g id="change2_31"><path d="M1002.44 231.44L1002.44 584.77 391.13 584.77 391.13 590.96 1006.78 590.96 1006.78 589.49 1006.78 584.77 1006.78 231.44 1002.44 231.44z" fill="#afaab2"/></g><g id="change3_32"><path d="M1006.78 230.49L394.82 230.49 390.47 230.49 390.47 234.41 390.47 590.96 394.82 590.96 394.82 234.41 1006.78 234.41 1006.78 230.49z" fill="#fff"/></g><g id="change4_11"><path d="M393.94 232.8H1003.3199999999999V272.49H393.94z" fill="#1903bd"/></g><g id="change1_33"><path d="M920.26 237.54H953.28V270.56H920.26z" fill="#dadada"/></g><g id="change2_32"><path d="M952.27 237.54L952.27 269.56 920.26 269.56 920.26 270.56 952.27 270.56 953.28 270.56 953.28 269.56 953.28 237.54 952.27 237.54z" fill="#afaab2"/></g><g id="change3_33"><path d="M953.28 237.54L921.26 237.54 920.26 237.54 920.26 238.55 920.26 270.56 921.26 270.56 921.26 238.55 953.28 238.55 953.28 237.54z" fill="#fff"/></g><g id="change5_21"><path d="M925.05 264.09H948.49V267.16999999999996H925.05z"/></g><g id="change1_34"><path d="M960.55 237.54H993.5699999999999V270.56H960.55z" fill="#dadada"/></g><g id="change2_33"><path d="M992.57 237.54L992.57 269.56 960.55 269.56 960.55 270.56 992.57 270.56 993.57 270.56 993.57 269.56 993.57 237.54 992.57 237.54z" fill="#afaab2"/></g><g id="change3_34"><path d="M993.57 237.54L961.55 237.54 960.55 237.54 960.55 238.55 960.55 270.56 961.55 270.56 961.55 238.55 993.57 238.55 993.57 237.54z" fill="#fff"/></g><g id="change5_22"><path d="M989.79 244.28L986.84 241.32 977.06 251.1 967.29 241.32 964.33 244.28 974.1 254.05 964.33 263.83 967.29 266.78 977.06 257.01 986.84 266.78 989.79 263.83 980.02 254.05 989.79 244.28z"/></g></g><g><g id="change1_68"><path d="M409.91 246.21H1026.22V605.21H409.91z" fill="#dadada"/></g><g id="change2_67"><path d="M1021.88 247.16L1021.88 600.5 410.57 600.5 410.57 606.69 1026.22 606.69 1026.22 605.22 1026.22 600.5 1026.22 247.16 1021.88 247.16z" fill="#afaab2"/></g><g id="change3_68"><path d="M1026.22 246.21L414.25 246.21 409.91 246.21 409.91 250.14 409.91 606.69 414.25 606.69 414.25 250.14 1026.22 250.14 1026.22 246.21z" fill="#fff"/></g><g id="change4_23"><path d="M413.37 248.52H1022.75V288.21000000000004H413.37z" fill="#1903bd"/></g><g id="change1_69"><path d="M939.69 253.27H972.71V286.29H939.69z" fill="#dadada"/></g><g id="change2_68"><path d="M971.71 253.27L971.71 285.29 939.69 285.29 939.69 286.29 971.71 286.29 972.71 286.29 972.71 285.29 972.71 253.27 971.71 253.27z" fill="#afaab2"/></g><g id="change3_69"><path d="M972.71 253.27L940.7 253.27 939.69 253.27 939.69 254.27 939.69 286.29 940.7 286.29 940.7 254.27 972.71 254.27 972.71 253.27z" fill="#fff"/></g><g id="change5_45"><path d="M944.48 279.82H967.9200000000001V282.9H944.48z"/></g><g id="change1_70"><path d="M979.99 253.27H1013.01V286.29H979.99z" fill="#dadada"/></g><g id="change2_69"><path d="M1012 253.27L1012 285.29 979.99 285.29 979.99 286.29 1012 286.29 1013.01 286.29 1013.01 285.29 1013.01 253.27 1012 253.27z" fill="#afaab2"/></g><g id="change3_70"><path d="M1013.01 253.27L980.99 253.27 979.99 253.27 979.99 254.27 979.99 286.29 980.99 286.29 980.99 254.27 1013.01 254.27 1013.01 253.27z" fill="#fff"/></g><g id="change5_46"><path d="M1009.23 260L1006.27 257.05 996.5 266.82 986.72 257.05 983.76 260 993.54 269.78 983.76 279.56 986.72 282.51 996.5 272.74 1006.27 282.51 1009.23 279.56 999.45 269.78 1009.23 260z"/></g></g><g><g id="change1_96"><path d="M428.22 262H1044.53V621H428.22z" fill="#dadada"/></g><g id="change2_94"><path d="M1040.19 262.95L1040.19 616.29 428.88 616.29 428.88 622.48 1044.54 622.48 1044.54 621.01 1044.54 616.29 1044.54 262.95 1040.19 262.95z" fill="#afaab2"/></g><g id="change3_96"><path d="M1044.54 262L432.57 262 428.22 262 428.22 265.93 428.22 622.48 432.57 622.48 432.57 265.93 1044.54 265.93 1044.54 262z" fill="#fff"/></g><g id="change4_32"><path d="M431.69 264.31H1041.07V304H431.69z" fill="#1903bd"/></g><g id="change1_97"><path d="M958.01 269.06H991.03V302.08H958.01z" fill="#dadada"/></g><g id="change2_95"><path d="M990.03 269.06L990.03 301.08 958.01 301.08 958.01 302.08 990.03 302.08 991.03 302.08 991.03 301.08 991.03 269.06 990.03 269.06z" fill="#afaab2"/></g><g id="change3_97"><path d="M991.03 269.06L959.01 269.06 958.01 269.06 958.01 270.06 958.01 302.08 959.01 302.08 959.01 270.06 991.03 270.06 991.03 269.06z" fill="#fff"/></g><g id="change5_63"><path d="M962.8 295.61H986.24V298.69H962.8z"/></g><g id="change1_98"><path d="M998.3 269.06H1031.32V302.08H998.3z" fill="#dadada"/></g><g id="change2_96"><path d="M1030.32 269.06L1030.32 301.08 998.3 301.08 998.3 302.08 1030.32 302.08 1031.32 302.08 1031.32 301.08 1031.32 269.06 1030.32 269.06z" fill="#afaab2"/></g><g id="change3_98"><path d="M1031.32 269.06L999.31 269.06 998.3 269.06 998.3 270.06 998.3 302.08 999.31 302.08 999.31 270.06 1031.32 270.06 1031.32 269.06z" fill="#fff"/></g><g id="change5_64"><path d="M1027.54 275.79L1024.59 272.84 1014.81 282.61 1005.04 272.84 1002.08 275.79 1011.86 285.57 1002.08 295.35 1005.04 298.3 1014.81 288.53 1024.59 298.3 1027.54 295.35 1017.77 285.57 1027.54 275.79z"/></g></g><g><g id="change1_80"><path d="M445.26 277.81H1061.57V636.81H445.26z" fill="#dadada"/></g><g id="change2_79"><path d="M1057.23 278.76L1057.23 632.09 445.92 632.09 445.92 638.28 1061.57 638.28 1061.57 636.81 1061.57 632.09 1061.57 278.76 1057.23 278.76z" fill="#afaab2"/></g><g id="change3_80"><path d="M1061.57 277.81L449.6 277.81 445.26 277.81 445.26 281.73 445.26 638.28 449.6 638.28 449.6 281.73 1061.57 281.73 1061.57 277.81z" fill="#fff"/></g><g id="change4_27"><path d="M448.73 280.12H1058.1100000000001V319.81H448.73z" fill="#1903bd"/></g><g id="change1_81"><path d="M975.05 284.86H1008.0699999999999V317.88H975.05z" fill="#dadada"/></g><g id="change2_80"><path d="M1007.06 284.86L1007.06 316.88 975.05 316.88 975.05 317.88 1007.06 317.88 1008.07 317.88 1008.07 316.88 1008.07 284.86 1007.06 284.86z" fill="#afaab2"/></g><g id="change3_81"><path d="M1008.07 284.86L976.05 284.86 975.05 284.86 975.05 285.87 975.05 317.88 976.05 317.88 976.05 285.87 1008.07 285.87 1008.07 284.86z" fill="#fff"/></g><g id="change5_53"><path d="M979.84 311.41H1003.2800000000001V314.49H979.84z"/></g><g id="change1_82"><path d="M1015.34 284.86H1048.3600000000001V317.88H1015.34z" fill="#dadada"/></g><g id="change2_81"><path d="M1047.36 284.86L1047.36 316.88 1015.34 316.88 1015.34 317.88 1047.36 317.88 1048.36 317.88 1048.36 316.88 1048.36 284.86 1047.36 284.86z" fill="#afaab2"/></g><g id="change3_82"><path d="M1048.36 284.86L1016.34 284.86 1015.34 284.86 1015.34 285.87 1015.34 317.88 1016.34 317.88 1016.34 285.87 1048.36 285.87 1048.36 284.86z" fill="#fff"/></g><g id="change5_54"><path d="M1044.58 291.6L1041.63 288.64 1031.85 298.42 1022.07 288.64 1019.12 291.6 1028.89 301.37 1019.12 311.15 1022.07 314.11 1031.85 304.33 1041.63 314.11 1044.58 311.15 1034.81 301.37 1044.58 291.6z"/></g></g><g><g id="change1_26"><path d="M460.86 293.58H1077.17V652.5799999999999H460.86z" fill="#dadada"/></g><g id="change2_25"><path d="M1072.83 294.53L1072.83 647.86 461.52 647.86 461.52 654.05 1077.17 654.05 1077.17 652.58 1077.17 647.86 1077.17 294.53 1072.83 294.53z" fill="#afaab2"/></g><g id="change3_26"><path d="M1077.17 293.58L465.21 293.58 460.86 293.58 460.86 297.5 460.86 654.05 465.21 654.05 465.21 297.5 1077.17 297.5 1077.17 293.58z" fill="#fff"/></g><g id="change4_9"><path d="M464.33 295.88H1073.71V335.57H464.33z" fill="#1903bd"/></g><g id="change1_27"><path d="M990.65 300.63H1023.67V333.65H990.65z" fill="#dadada"/></g><g id="change2_26"><path d="M1022.66 300.63L1022.66 332.65 990.65 332.65 990.65 333.65 1022.66 333.65 1023.67 333.65 1023.67 332.65 1023.67 300.63 1022.66 300.63z" fill="#afaab2"/></g><g id="change3_27"><path d="M1023.67 300.63L991.65 300.63 990.65 300.63 990.65 301.64 990.65 333.65 991.65 333.65 991.65 301.64 1023.67 301.64 1023.67 300.63z" fill="#fff"/></g><g id="change5_17"><path d="M995.44 327.18H1018.8800000000001V330.26H995.44z"/></g><g id="change1_28"><path d="M1030.94 300.63H1063.96V333.65H1030.94z" fill="#dadada"/></g><g id="change2_27"><path d="M1062.96 300.63L1062.96 332.65 1030.94 332.65 1030.94 333.65 1062.96 333.65 1063.96 333.65 1063.96 332.65 1063.96 300.63 1062.96 300.63z" fill="#afaab2"/></g><g id="change3_28"><path d="M1063.96 300.63L1031.94 300.63 1030.94 300.63 1030.94 301.64 1030.94 333.65 1031.94 333.65 1031.94 301.64 1063.96 301.64 1063.96 300.63z" fill="#fff"/></g><g id="change5_18"><path d="M1060.18 307.37L1057.23 304.41 1047.45 314.19 1037.67 304.41 1034.72 307.37 1044.49 317.14 1034.72 326.92 1037.67 329.87 1047.45 320.1 1057.23 329.87 1060.18 326.92 1050.41 317.14 1060.18 307.37z"/></g></g><g><g id="change1_71"><path d="M474.87 309.26H1091.1799999999998V668.26H474.87z" fill="#dadada"/></g><g id="change2_70"><path d="M1086.83 310.21L1086.83 663.54 475.53 663.54 475.53 669.74 1091.18 669.74 1091.18 668.26 1091.18 663.54 1091.18 310.21 1086.83 310.21z" fill="#afaab2"/></g><g id="change3_71"><path d="M1091.18 309.26L479.21 309.26 474.87 309.26 474.87 313.18 474.87 669.74 479.21 669.74 479.21 313.18 1091.18 313.18 1091.18 309.26z" fill="#fff"/></g><g id="change4_24"><path d="M478.33 311.57H1087.71V351.26H478.33z" fill="#1903bd"/></g><g id="change1_72"><path d="M1004.65 316.32H1037.67V349.34H1004.65z" fill="#dadada"/></g><g id="change2_71"><path d="M1036.67 316.32L1036.67 348.33 1004.65 348.33 1004.65 349.33 1036.67 349.33 1037.67 349.33 1037.67 348.33 1037.67 316.32 1036.67 316.32z" fill="#afaab2"/></g><g id="change3_72"><path d="M1037.67 316.32L1005.65 316.32 1004.65 316.32 1004.65 317.32 1004.65 349.33 1005.65 349.33 1005.65 317.32 1037.67 317.32 1037.67 316.32z" fill="#fff"/></g><g id="change5_47"><path d="M1009.44 342.86H1032.88V345.94H1009.44z"/></g><g id="change1_73"><path d="M1044.94 316.32H1077.96V349.34H1044.94z" fill="#dadada"/></g><g id="change2_72"><path d="M1076.96 316.32L1076.96 348.33 1044.95 348.33 1044.95 349.33 1076.96 349.33 1077.96 349.33 1077.96 348.33 1077.96 316.32 1076.96 316.32z" fill="#afaab2"/></g><g id="change3_73"><path d="M1077.96 316.32L1045.95 316.32 1044.95 316.32 1044.95 317.32 1044.95 349.33 1045.95 349.33 1045.95 317.32 1077.96 317.32 1077.96 316.32z" fill="#fff"/></g><g id="change5_48"><path d="M1074.19 323.05L1071.23 320.09 1061.45 329.87 1051.68 320.09 1048.72 323.05 1058.5 332.83 1048.72 342.6 1051.68 345.56 1061.45 335.78 1071.23 345.56 1074.19 342.6 1064.41 332.83 1074.19 323.05z"/></g></g><g><g id="change1_93"><path d="M487.11 324.81H1103.42V683.81H487.11z" fill="#dadada"/></g><g id="change2_91"><path d="M1099.08 325.76L1099.08 679.09 487.78 679.09 487.78 685.28 1103.43 685.28 1103.43 683.81 1103.43 679.09 1103.43 325.76 1099.08 325.76z" fill="#afaab2"/></g><g id="change3_93"><path d="M1103.43 324.81L491.46 324.81 487.11 324.81 487.11 328.73 487.11 685.28 491.46 685.28 491.46 328.73 1103.43 328.73 1103.43 324.81z" fill="#fff"/></g><g id="change4_31"><path d="M490.58 327.12H1099.96V366.81H490.58z" fill="#1903bd"/></g><g id="change1_94"><path d="M1016.9 331.86H1049.92V364.88H1016.9z" fill="#dadada"/></g><g id="change2_92"><path d="M1048.92 331.86L1048.92 363.88 1016.9 363.88 1016.9 364.88 1048.92 364.88 1049.92 364.88 1049.92 363.88 1049.92 331.86 1048.92 331.86z" fill="#afaab2"/></g><g id="change3_94"><path d="M1049.92 331.86L1017.9 331.86 1016.9 331.86 1016.9 332.87 1016.9 364.88 1017.9 364.88 1017.9 332.87 1049.92 332.87 1049.92 331.86z" fill="#fff"/></g><g id="change5_61"><path d="M1021.69 358.41H1045.13V361.49H1021.69z"/></g><g id="change1_95"><path d="M1057.19 331.86H1090.21V364.88H1057.19z" fill="#dadada"/></g><g id="change2_93"><path d="M1089.21 331.86L1089.21 363.88 1057.19 363.88 1057.19 364.88 1089.21 364.88 1090.21 364.88 1090.21 363.88 1090.21 331.86 1089.21 331.86z" fill="#afaab2"/></g><g id="change3_95"><path d="M1090.21 331.86L1058.2 331.86 1057.19 331.86 1057.19 332.87 1057.19 364.88 1058.2 364.88 1058.2 332.87 1090.21 332.87 1090.21 331.86z" fill="#fff"/></g><g id="change5_62"><path d="M1086.44 338.6L1083.48 335.64 1073.7 345.42 1063.93 335.64 1060.97 338.6 1070.75 348.37 1060.97 358.15 1063.93 361.11 1073.7 351.33 1083.48 361.11 1086.44 358.15 1076.66 348.37 1086.44 338.6z"/></g></g><g><g id="change1_59"><path d="M497.45 340.17H1113.76V699.1700000000001H497.45z" fill="#dadada"/></g><g id="change2_58"><path d="M1109.42 341.12L1109.42 694.45 498.11 694.45 498.11 700.65 1113.76 700.65 1113.76 699.17 1113.76 694.45 1113.76 341.12 1109.42 341.12z" fill="#afaab2"/></g><g id="change3_59"><path d="M1113.76 340.17L501.79 340.17 497.45 340.17 497.45 344.09 497.45 700.65 501.79 700.65 501.79 344.09 1113.76 344.09 1113.76 340.17z" fill="#fff"/></g><g id="change4_20"><path d="M500.92 342.48H1110.3V382.17H500.92z" fill="#1903bd"/></g><g id="change1_60"><path d="M1027.23 347.23H1060.25V380.25H1027.23z" fill="#dadada"/></g><g id="change2_59"><path d="M1059.25 347.23L1059.25 379.24 1027.23 379.24 1027.23 380.25 1059.25 380.25 1060.25 380.25 1060.25 379.24 1060.25 347.23 1059.25 347.23z" fill="#afaab2"/></g><g id="change3_60"><path d="M1060.25 347.23L1028.24 347.23 1027.23 347.23 1027.23 348.23 1027.23 380.25 1028.24 380.25 1028.24 348.23 1060.25 348.23 1060.25 347.23z" fill="#fff"/></g><g id="change5_39"><path d="M1032.03 373.78H1055.47V376.85999999999996H1032.03z"/></g><g id="change1_61"><path d="M1067.53 347.23H1100.55V380.25H1067.53z" fill="#dadada"/></g><g id="change2_60"><path d="M1099.54 347.23L1099.54 379.24 1067.53 379.24 1067.53 380.25 1099.54 380.25 1100.55 380.25 1100.55 379.24 1100.55 347.23 1099.54 347.23z" fill="#afaab2"/></g><g id="change3_61"><path d="M1100.55 347.23L1068.53 347.23 1067.53 347.23 1067.53 348.23 1067.53 380.25 1068.53 380.25 1068.53 348.23 1100.55 348.23 1100.55 347.23z" fill="#fff"/></g><g id="change5_40"><path d="M1096.77 353.96L1093.81 351.01 1084.04 360.78 1074.26 351.01 1071.31 353.96 1081.08 363.74 1071.31 373.51 1074.26 376.47 1084.04 366.69 1093.81 376.47 1096.77 373.51 1086.99 363.74 1096.77 353.96z"/></g></g><g><g id="change1_23"><path d="M505.71 355.3H1122.02V714.3H505.71z" fill="#dadada"/></g><g><g><g id="change1_89"><path d="M617.74 621.48H765.77V666.5H617.74z" fill="#dadada"/></g><g id="change3_89"><path d="M765.77 621.48L620.81 621.48 617.74 621.48 617.74 624.55 617.74 666.5 620.81 666.5 620.81 624.55 765.77 624.55 765.77 621.48z" fill="#fff"/></g><g id="change6_2"><path d="M762.7 621.48L762.7 663.43 617.74 663.43 617.74 666.5 762.7 666.5 765.77 666.5 765.77 666.5 765.77 621.48 762.7 621.48z" fill="#8a878c"/></g></g><g><g id="change1_22"><path d="M861.01 621.48H1009.04V666.5H861.01z" fill="#dadada"/></g><g id="change3_22"><path d="M1009.04 621.48L864.08 621.48 861.01 621.48 861.01 624.55 861.01 666.5 864.08 666.5 864.08 624.55 1009.04 624.55 1009.04 621.48z" fill="#fff"/></g><g id="change6_1"><path d="M1005.97 621.48L1005.97 663.43 861.01 663.43 861.01 666.5 1005.97 666.5 1009.04 666.5 1009.04 666.5 1009.04 621.48 1005.97 621.48z" fill="#8a878c"/></g></g></g><g id="change2_22"><path d="M1117.68 356.25L1117.68 709.58 506.37 709.58 506.37 715.78 1122.02 715.78 1122.02 714.3 1122.02 709.58 1122.02 356.25 1117.68 356.25z" fill="#afaab2"/></g><g id="change3_23"><path d="M1122.02 355.3L510.05 355.3 505.71 355.3 505.71 359.22 505.71 715.78 510.05 715.78 510.05 359.22 1122.02 359.22 1122.02 355.3z" fill="#fff"/></g><g id="change4_8"><path d="M509.18 357.61H1118.56V397.3H509.18z" fill="#1903bd"/></g><g id="change1_24"><path d="M1035.5 362.36H1068.52V395.38H1035.5z" fill="#dadada"/></g><g id="change2_23"><path d="M1067.51 362.36L1067.51 394.37 1035.5 394.37 1035.5 395.38 1067.51 395.38 1068.51 395.38 1068.51 394.37 1068.51 362.36 1067.51 362.36z" fill="#afaab2"/></g><g id="change3_24"><path d="M1068.51 362.36L1036.5 362.36 1035.5 362.36 1035.5 363.36 1035.5 395.38 1036.5 395.38 1036.5 363.36 1068.51 363.36 1068.51 362.36z" fill="#fff"/></g><g id="change5_15"><path d="M1040.29 388.91H1063.73V391.99H1040.29z"/></g><g id="change1_25"><path d="M1075.79 362.36H1108.81V395.38H1075.79z" fill="#dadada"/></g><g id="change2_24"><path d="M1107.81 362.36L1107.81 394.37 1075.79 394.37 1075.79 395.38 1107.81 395.38 1108.81 395.38 1108.81 394.37 1108.81 362.36 1107.81 362.36z" fill="#afaab2"/></g><g id="change3_25"><path d="M1108.81 362.36L1076.79 362.36 1075.79 362.36 1075.79 363.36 1075.79 395.38 1076.79 395.38 1076.79 363.36 1108.81 363.36 1108.81 362.36z" fill="#fff"/></g><g id="change5_16"><path d="M1105.03 369.09L1102.08 366.13 1092.3 375.91 1082.52 366.13 1079.57 369.09 1089.34 378.87 1079.57 388.64 1082.52 391.6 1092.3 381.82 1102.08 391.6 1105.03 388.64 1095.26 378.87 1105.03 369.09z"/></g></g></g></g></g></svg>