<?xml version="1.0" encoding="UTF-8" standalone="no"?><svg xmlns="http://www.w3.org/2000/svg" xmlns:xlink="http://www.w3.org/1999/xlink" fill="#000000" height="410.6" preserveAspectRatio="xMidYMid meet" version="1" viewBox="0.0 0.0 477.6 410.6" width="477.6" zoomAndPan="magnify"><g id="change1_1"><path d="M0.5,0.5v409.57h476.566V0.5H0.5z M472.048,346.834H5.518V55.656h466.53V346.834z" fill="#e5e5e5"/></g><g><linearGradient gradientUnits="userSpaceOnUse" id="a" x1="5.518" x2="472.048" xlink:actuate="onLoad" xlink:show="other" xlink:type="simple" y1="199.715" y2="199.715"><stop offset="0" stop-color="#015ed8"/><stop offset="1" stop-color="#8ac3cf"/></linearGradient><path d="M472.048,346.834H5.518v-13.267h466.53V346.834z M391.398,394.074h55.505v-16.253L391.398,394.074z M131.047,366.987h12.188c2.093,0,3.79-1.697,3.79-3.79v-0.223c0-2.093-1.697-3.79-3.79-3.79h-12.188 c-2.093,0-3.79,1.697-3.79,3.79v0.223C127.258,365.29,128.954,366.987,131.047,366.987z M472.048,5.356v20.967H5.518V5.356H472.048 z M428.094,8.452H412.9v15.194h15.194V8.452z M447.418,8.452h-15.194v15.194h15.194V8.452z M466.743,8.452h-15.193v15.194h15.193 V8.452z" fill="url(#a)"/></g><g id="change2_1"><path d="M56.628,377.821c0,11.532-9.348,20.88-20.88,20.88s-20.88-9.348-20.88-20.88 c0-11.532,9.348-20.88,20.88-20.88S56.628,366.289,56.628,377.821z M79.136,370.453c-7.801,0-14.124,6.324-14.124,14.124 s6.324,14.124,14.124,14.124s14.124-6.324,14.124-14.124S86.936,370.453,79.136,370.453z M130.442,386.399L130.442,386.399 c0-3.9-3.162-7.062-7.062-7.062h-11.533c-3.9,0-7.062,3.162-7.062,7.062v0c0,3.9,3.162,7.062,7.062,7.062h11.533 C127.281,393.461,130.442,390.299,130.442,386.399z M163.79,386.399L163.79,386.399c0-3.9-3.162-7.062-7.062-7.062h-11.533 c-3.9,0-7.062,3.162-7.062,7.062v0c0,3.9,3.162,7.062,7.062,7.062h11.533C160.628,393.461,163.79,390.299,163.79,386.399z M141.857,359.184h-9.431v7.803h9.431V359.184z M127.258,362.947v0.027c0-0.158,0.028-0.309,0.046-0.462 C127.275,362.652,127.258,362.797,127.258,362.947z M127.258,363.197v0.027c0,0.149,0.017,0.294,0.046,0.435 C127.285,363.506,127.258,363.355,127.258,363.197z M433.866,360.855H146.378c0.408,0.605,0.647,1.334,0.647,2.119v0.223 c0,0.785-0.239,1.514-0.647,2.119h287.488c1.155,0,2.091-0.936,2.091-2.091v-0.278 C435.957,361.792,435.021,360.855,433.866,360.855z M372.002,382.372h-6.763v7.729h6.763l4.831,4.106v-15.458L372.002,382.372z M380.697,391.116L380.697,391.116c1.872-2.808,1.872-6.467,0-9.275l0,0 M383.789,393.435L383.789,393.435 c2.808-4.212,2.808-9.7,0-13.912h0 M451.713,376.376h-4.81v18.901h4.81V376.376z M38.244,18.557h-0.293 c-0.289,0-0.495,0.056-0.618,0.167s-0.185,0.255-0.185,0.431c0,0.18,0.062,0.325,0.185,0.437s0.329,0.167,0.618,0.167h1.617 c0.289,0,0.494-0.056,0.615-0.167s0.182-0.255,0.182-0.431c0-0.211-0.09-0.381-0.27-0.51c-0.09-0.062-0.275-0.094-0.557-0.094 l-2.391-5.9l-2.596-0.006c-0.289,0-0.495,0.056-0.618,0.167s-0.185,0.257-0.185,0.437s0.062,0.325,0.185,0.437 s0.329,0.167,0.618,0.167h0.785l-1.887,4.699c-0.297-0.008-0.51,0.045-0.639,0.158s-0.193,0.26-0.193,0.439 s0.062,0.325,0.185,0.437s0.329,0.167,0.618,0.167h1.617c0.289,0,0.495-0.056,0.618-0.167s0.185-0.255,0.185-0.431 c0-0.18-0.062-0.325-0.185-0.437s-0.329-0.167-0.618-0.167h-0.293l0.293-0.732h2.918L38.244,18.557z M35.52,16.624l0.973-2.379 l0.967,2.379H35.52z M41.332,14.438c-0.289,0-0.495,0.056-0.618,0.167s-0.185,0.255-0.185,0.431s0.061,0.32,0.182,0.434 s0.309,0.17,0.562,0.17v2.918c-0.309,0-0.51,0.029-0.604,0.088c-0.188,0.121-0.281,0.291-0.281,0.51 c0,0.18,0.062,0.325,0.185,0.437s0.329,0.167,0.618,0.167h1.365c0.289,0,0.495-0.056,0.618-0.167s0.185-0.255,0.185-0.431 c0-0.227-0.096-0.398-0.287-0.516c-0.09-0.059-0.289-0.088-0.598-0.088v-2.232c0.32-0.348,0.585-0.575,0.794-0.683 s0.452-0.161,0.729-0.161c0.367,0,0.643,0.078,0.826,0.234c0.141,0.121,0.211,0.312,0.211,0.574v2.268 c-0.254,0-0.441,0.056-0.562,0.167s-0.182,0.255-0.182,0.431c0,0.18,0.062,0.325,0.185,0.437s0.329,0.167,0.618,0.167h1.084 c0.289,0,0.495-0.056,0.618-0.167s0.185-0.255,0.185-0.431c0-0.18-0.061-0.325-0.182-0.437s-0.309-0.167-0.562-0.167v-2.232 c0-0.57-0.164-1.031-0.492-1.383c-0.414-0.441-0.977-0.662-1.688-0.662c-0.309,0-0.595,0.047-0.858,0.141s-0.505,0.234-0.724,0.422 v-0.404H41.332z M49.541,21.065h-1.195c-0.289,0-0.495,0.056-0.618,0.167s-0.185,0.257-0.185,0.437 c0,0.176,0.062,0.319,0.185,0.431s0.329,0.167,0.618,0.167h2.619c0.289,0,0.495-0.056,0.618-0.167s0.185-0.255,0.185-0.431 c0-0.223-0.094-0.395-0.281-0.516c-0.094-0.059-0.291-0.088-0.592-0.088l2.754-5.426c0.207-0.016,0.363-0.079,0.469-0.19 s0.158-0.247,0.158-0.407c0-0.18-0.062-0.325-0.185-0.437s-0.327-0.167-0.612-0.167h-1.131c-0.289,0-0.495,0.056-0.618,0.167 s-0.185,0.255-0.185,0.431c0,0.18,0.062,0.325,0.185,0.437s0.313,0.167,0.571,0.167l-1.406,2.76l-1.418-2.76 c0.266,0,0.46-0.056,0.583-0.167s0.185-0.255,0.185-0.431c0-0.18-0.062-0.325-0.185-0.437s-0.329-0.167-0.618-0.167h-1.096 c-0.289,0-0.495,0.056-0.618,0.167s-0.185,0.257-0.185,0.437c0,0.156,0.051,0.289,0.152,0.398s0.25,0.176,0.445,0.199l2.08,4.078 L49.541,21.065z M64.811,18.071h1.043l1.377-3.094v3.58h-0.439c-0.285,0-0.489,0.056-0.612,0.167s-0.185,0.255-0.185,0.431 c0,0.18,0.062,0.325,0.185,0.437s0.327,0.167,0.612,0.167h1.582c0.289,0,0.495-0.056,0.618-0.167s0.185-0.255,0.185-0.431 s-0.061-0.32-0.182-0.434s-0.309-0.17-0.562-0.17v-4.699c0.207-0.02,0.365-0.084,0.475-0.193s0.164-0.246,0.164-0.41 c0-0.18-0.062-0.324-0.185-0.434s-0.329-0.164-0.618-0.164l-1.33-0.006l-1.605,3.621l-1.635-3.615l-1.318-0.006 c-0.289,0-0.495,0.056-0.618,0.167s-0.185,0.257-0.185,0.437c0,0.164,0.054,0.301,0.161,0.41s0.267,0.174,0.478,0.193v4.699 c-0.254,0-0.441,0.056-0.562,0.167s-0.182,0.255-0.182,0.431c0,0.18,0.062,0.325,0.185,0.437s0.329,0.167,0.618,0.167h1.576 c0.289,0,0.495-0.056,0.618-0.167s0.185-0.255,0.185-0.431c0-0.18-0.062-0.325-0.185-0.437s-0.329-0.167-0.618-0.167h-0.434v-3.58 L64.811,18.071z M75.51,17.198c0-0.391-0.062-0.734-0.188-1.031c-0.184-0.426-0.416-0.783-0.697-1.072 c-0.199-0.199-0.503-0.385-0.911-0.557s-0.856-0.258-1.345-0.258c-0.812,0-1.53,0.265-2.153,0.794s-0.935,1.216-0.935,2.06 c0,0.793,0.288,1.461,0.864,2.004s1.345,0.814,2.306,0.814c0.559,0,1.141-0.065,1.746-0.196s0.986-0.269,1.143-0.413 c0.117-0.109,0.176-0.242,0.176-0.398c0-0.172-0.055-0.314-0.164-0.428s-0.244-0.17-0.404-0.17c-0.117,0-0.328,0.039-0.633,0.117 c-0.738,0.191-1.33,0.287-1.775,0.287c-0.543,0-0.974-0.096-1.292-0.287s-0.54-0.443-0.665-0.756h4.928V17.198z M70.617,16.506 c0.188-0.344,0.43-0.601,0.727-0.771s0.648-0.255,1.055-0.255c0.41,0,0.764,0.085,1.061,0.255s0.537,0.427,0.721,0.771H70.617z M81.047,12.159c-0.289,0-0.495,0.056-0.618,0.167s-0.185,0.257-0.185,0.437c0,0.176,0.062,0.319,0.185,0.431 s0.329,0.167,0.618,0.167h0.205v1.494c-0.293-0.191-0.59-0.335-0.891-0.431s-0.607-0.144-0.92-0.144 c-0.832,0-1.537,0.287-2.115,0.861s-0.867,1.268-0.867,2.08c0,0.777,0.275,1.427,0.826,1.948s1.277,0.782,2.18,0.782 c0.32,0,0.63-0.041,0.929-0.123s0.585-0.203,0.858-0.363v0.293h1.406c0.289,0,0.495-0.056,0.618-0.167s0.185-0.255,0.185-0.431 c0-0.18-0.062-0.325-0.188-0.437s-0.33-0.167-0.615-0.167h-0.205v-6.398H81.047z M80.777,18.326 c-0.316,0.283-0.758,0.425-1.324,0.425c-0.57,0-1.012-0.142-1.324-0.425s-0.469-0.646-0.469-1.087c0-0.484,0.174-0.898,0.521-1.242 s0.771-0.516,1.271-0.516c0.504,0,0.93,0.172,1.277,0.516s0.521,0.764,0.521,1.26C81.252,17.686,81.094,18.042,80.777,18.326z M85.324,14.438c-0.289,0-0.495,0.056-0.618,0.167s-0.185,0.255-0.185,0.431c0,0.18,0.062,0.325,0.188,0.437 s0.33,0.167,0.615,0.167h0.967v2.918H84.85c-0.289,0-0.495,0.056-0.618,0.167s-0.185,0.255-0.185,0.431 c0,0.18,0.062,0.325,0.185,0.437s0.329,0.167,0.618,0.167h4.084c0.289,0,0.495-0.056,0.618-0.167s0.185-0.255,0.185-0.431 c0-0.18-0.062-0.325-0.185-0.437s-0.329-0.167-0.618-0.167h-1.441v-4.119H85.324z M85.898,12.159v1.271h1.43v-1.271H85.898z M96.586,19.758c0.289,0,0.495-0.056,0.618-0.167s0.185-0.255,0.185-0.431c0-0.18-0.062-0.325-0.185-0.437 s-0.329-0.167-0.618-0.167h-0.205v-2.473c0-0.559-0.206-0.999-0.618-1.321s-0.991-0.483-1.737-0.483 c-0.25,0-0.529,0.024-0.838,0.073s-0.611,0.114-0.908,0.196c-0.223,0.062-0.369,0.116-0.439,0.161s-0.125,0.104-0.164,0.179 s-0.059,0.162-0.059,0.264c0,0.18,0.056,0.327,0.167,0.442s0.247,0.173,0.407,0.173c0.117,0,0.281-0.025,0.492-0.076 c0.566-0.141,1.027-0.211,1.383-0.211c0.434,0,0.728,0.057,0.882,0.17s0.231,0.26,0.231,0.439v0.287 c-0.477-0.078-0.896-0.117-1.26-0.117c-0.906,0-1.616,0.216-2.13,0.647s-0.771,0.899-0.771,1.403c0,0.414,0.201,0.792,0.604,1.134 s0.926,0.513,1.57,0.513c0.297,0,0.627-0.04,0.99-0.12s0.695-0.2,0.996-0.36v0.281H96.586z M95.18,18.124 c-0.285,0.195-0.61,0.35-0.976,0.463s-0.692,0.17-0.981,0.17c-0.34,0-0.607-0.064-0.803-0.193c-0.105-0.07-0.158-0.162-0.158-0.275 c0-0.156,0.109-0.311,0.328-0.463c0.352-0.238,0.771-0.357,1.26-0.357c0.406,0,0.85,0.047,1.33,0.141V18.124z M108.943,17.321 c0.484,0,0.874-0.058,1.169-0.173s0.584-0.287,0.867-0.516s0.485-0.46,0.606-0.694c0.16-0.312,0.24-0.645,0.24-0.996 c0-0.637-0.237-1.177-0.712-1.62s-1.118-0.665-1.931-0.665l-2.766-0.006c-0.289,0-0.495,0.056-0.618,0.167 s-0.185,0.257-0.185,0.437s0.062,0.325,0.185,0.437s0.329,0.167,0.618,0.167h0.188v4.699h-0.188c-0.285,0-0.49,0.056-0.615,0.167 s-0.188,0.255-0.188,0.431c0,0.18,0.062,0.325,0.185,0.437s0.329,0.167,0.618,0.167h2.602c0.289,0,0.495-0.056,0.618-0.167 s0.185-0.255,0.185-0.431c0-0.18-0.062-0.325-0.185-0.437s-0.329-0.167-0.618-0.167h-1.213v-1.236H108.943z M107.807,13.858h1.383 c0.461,0,0.815,0.105,1.063,0.316s0.372,0.457,0.372,0.738c0,0.332-0.153,0.616-0.46,0.853s-0.722,0.354-1.245,0.354h-1.113V13.858 z M114.135,12.159c-0.289,0-0.495,0.056-0.618,0.167s-0.185,0.255-0.185,0.431c0,0.18,0.062,0.325,0.188,0.437 s0.33,0.167,0.615,0.167h0.967v5.197h-1.441c-0.289,0-0.495,0.056-0.618,0.167s-0.185,0.255-0.185,0.431 c0,0.18,0.062,0.325,0.185,0.437s0.329,0.167,0.618,0.167h4.084c0.289,0,0.495-0.056,0.618-0.167s0.185-0.255,0.185-0.431 c0-0.18-0.062-0.325-0.185-0.437s-0.329-0.167-0.618-0.167h-1.441v-6.398H114.135z M125.391,19.758 c0.289,0,0.495-0.056,0.618-0.167s0.185-0.255,0.185-0.431c0-0.18-0.062-0.325-0.185-0.437s-0.329-0.167-0.618-0.167h-0.205v-2.473 c0-0.559-0.206-0.999-0.618-1.321s-0.991-0.483-1.737-0.483c-0.25,0-0.529,0.024-0.838,0.073s-0.611,0.114-0.908,0.196 c-0.223,0.062-0.369,0.116-0.439,0.161s-0.125,0.104-0.164,0.179s-0.059,0.162-0.059,0.264c0,0.18,0.056,0.327,0.167,0.442 s0.247,0.173,0.407,0.173c0.117,0,0.281-0.025,0.492-0.076c0.566-0.141,1.027-0.211,1.383-0.211c0.434,0,0.728,0.057,0.882,0.17 s0.231,0.26,0.231,0.439v0.287c-0.477-0.078-0.896-0.117-1.26-0.117c-0.906,0-1.616,0.216-2.13,0.647s-0.771,0.899-0.771,1.403 c0,0.414,0.201,0.792,0.604,1.134s0.926,0.513,1.57,0.513c0.297,0,0.627-0.04,0.99-0.12s0.695-0.2,0.996-0.36v0.281H125.391z M123.984,18.124c-0.285,0.195-0.61,0.35-0.976,0.463s-0.692,0.17-0.981,0.17c-0.34,0-0.607-0.064-0.803-0.193 c-0.105-0.07-0.158-0.162-0.158-0.275c0-0.156,0.109-0.311,0.328-0.463c0.352-0.238,0.771-0.357,1.26-0.357 c0.406,0,0.85,0.047,1.33,0.141V18.124z M128.754,21.065h-1.195c-0.289,0-0.495,0.056-0.618,0.167s-0.185,0.257-0.185,0.437 c0,0.176,0.062,0.319,0.185,0.431s0.329,0.167,0.618,0.167h2.619c0.289,0,0.495-0.056,0.618-0.167s0.185-0.255,0.185-0.431 c0-0.223-0.094-0.395-0.281-0.516c-0.094-0.059-0.291-0.088-0.592-0.088l2.754-5.426c0.207-0.016,0.363-0.079,0.469-0.19 s0.158-0.247,0.158-0.407c0-0.18-0.062-0.325-0.185-0.437s-0.327-0.167-0.612-0.167h-1.131c-0.289,0-0.495,0.056-0.618,0.167 s-0.185,0.255-0.185,0.431c0,0.18,0.062,0.325,0.185,0.437s0.313,0.167,0.571,0.167l-1.406,2.76l-1.418-2.76 c0.266,0,0.46-0.056,0.583-0.167s0.185-0.255,0.185-0.431c0-0.18-0.062-0.325-0.185-0.437s-0.329-0.167-0.618-0.167h-1.096 c-0.289,0-0.495,0.056-0.618,0.167s-0.185,0.257-0.185,0.437c0,0.156,0.051,0.289,0.152,0.398s0.25,0.176,0.445,0.199l2.08,4.078 L128.754,21.065z M140.32,17.198c0-0.391-0.062-0.734-0.188-1.031c-0.184-0.426-0.416-0.783-0.697-1.072 c-0.199-0.199-0.503-0.385-0.911-0.557s-0.856-0.258-1.345-0.258c-0.812,0-1.53,0.265-2.153,0.794s-0.935,1.216-0.935,2.06 c0,0.793,0.288,1.461,0.864,2.004s1.345,0.814,2.306,0.814c0.559,0,1.141-0.065,1.746-0.196s0.986-0.269,1.143-0.413 c0.117-0.109,0.176-0.242,0.176-0.398c0-0.172-0.055-0.314-0.164-0.428s-0.244-0.17-0.404-0.17c-0.117,0-0.328,0.039-0.633,0.117 c-0.738,0.191-1.33,0.287-1.775,0.287c-0.543,0-0.974-0.096-1.292-0.287s-0.54-0.443-0.665-0.756h4.928V17.198z M135.428,16.506 c0.188-0.344,0.43-0.601,0.727-0.771s0.648-0.255,1.055-0.255c0.41,0,0.764,0.085,1.061,0.255s0.537,0.427,0.721,0.771H135.428z M142.623,14.438c-0.289,0-0.495,0.056-0.618,0.167s-0.185,0.255-0.185,0.431c0,0.18,0.062,0.325,0.185,0.437 s0.329,0.167,0.618,0.167h0.434v2.918h-0.715c-0.289,0-0.495,0.056-0.618,0.167s-0.185,0.255-0.185,0.431 c0,0.18,0.062,0.325,0.185,0.437s0.329,0.167,0.618,0.167h3.627c0.289,0,0.495-0.056,0.618-0.167s0.185-0.255,0.185-0.431 c0-0.18-0.062-0.325-0.185-0.437s-0.329-0.167-0.618-0.167h-1.711v-1.811c0.5-0.422,0.917-0.738,1.251-0.949 s0.585-0.316,0.753-0.316c0.129,0,0.275,0.074,0.439,0.223s0.32,0.223,0.469,0.223c0.168,0,0.312-0.06,0.431-0.179 s0.179-0.265,0.179-0.437c0-0.203-0.125-0.402-0.375-0.598c-0.367-0.289-0.746-0.434-1.137-0.434c-0.254,0-0.526,0.061-0.817,0.182 s-0.688,0.363-1.192,0.727v-0.75H142.623z M19.943,15.84l-3.657-2.617v5.235L19.943,15.84z M24.692,15.84 c0,3.969-3.218,7.187-7.187,7.187s-7.187-3.218-7.187-7.187c0-3.969,3.218-7.187,7.187-7.187S24.692,11.871,24.692,15.84z M22.489,15.84c0-2.752-2.231-4.984-4.984-4.984s-4.984,2.231-4.984,4.984c0,2.753,2.231,4.984,4.984,4.984 S22.489,18.592,22.489,15.84z M32.282,340.411v1.05h0.301c0.201,0,0.345,0.039,0.43,0.116c0.086,0.077,0.129,0.179,0.129,0.304 c0,0.122-0.043,0.222-0.129,0.299c-0.085,0.077-0.229,0.116-0.43,0.116h-1.266c-0.201,0-0.344-0.039-0.43-0.116 c-0.085-0.077-0.128-0.179-0.128-0.303c0-0.122,0.043-0.223,0.13-0.3s0.229-0.116,0.428-0.116h0.13v-3.265h-0.13 c-0.201,0-0.344-0.038-0.43-0.116c-0.085-0.077-0.128-0.178-0.128-0.303s0.043-0.227,0.128-0.304 c0.086-0.077,0.229-0.116,0.43-0.116l1.889,0.005c0.589,0,1.046,0.146,1.37,0.438c0.324,0.291,0.486,0.646,0.486,1.064 c0,0.261-0.076,0.497-0.228,0.71c-0.152,0.213-0.382,0.402-0.688,0.568c0.177,0.154,0.365,0.353,0.566,0.594 c0.124,0.155,0.293,0.396,0.505,0.725c0.211,0,0.351,0.022,0.419,0.065c0.122,0.084,0.184,0.202,0.184,0.354 c0,0.122-0.043,0.222-0.127,0.299s-0.227,0.116-0.427,0.116H34.79c-0.676-1.045-1.236-1.673-1.682-1.885H32.282z M32.282,339.576 h0.651c0.241,0,0.457-0.036,0.647-0.109c0.255-0.098,0.427-0.201,0.515-0.31s0.133-0.216,0.133-0.321 c0-0.158-0.085-0.304-0.253-0.438c-0.168-0.135-0.414-0.202-0.736-0.202h-0.957V339.576z M41.074,340.871h-3.423 c0.086,0.217,0.24,0.393,0.462,0.525c0.221,0.133,0.521,0.199,0.897,0.199c0.31,0,0.721-0.066,1.233-0.199 c0.212-0.055,0.358-0.082,0.439-0.082c0.111,0,0.205,0.04,0.281,0.118c0.076,0.079,0.114,0.178,0.114,0.298 c0,0.108-0.041,0.2-0.122,0.276c-0.109,0.101-0.374,0.196-0.794,0.287c-0.421,0.091-0.825,0.137-1.214,0.137 c-0.667,0-1.201-0.189-1.602-0.566s-0.601-0.841-0.601-1.393c0-0.586,0.217-1.062,0.649-1.431c0.433-0.367,0.932-0.552,1.496-0.552 c0.339,0,0.65,0.06,0.935,0.18c0.283,0.119,0.494,0.248,0.633,0.387c0.195,0.2,0.356,0.449,0.484,0.745 c0.087,0.206,0.13,0.444,0.13,0.716V340.871z M40.15,340.036c-0.128-0.238-0.294-0.417-0.501-0.535 c-0.206-0.118-0.451-0.177-0.736-0.177c-0.282,0-0.526,0.059-0.733,0.177c-0.206,0.118-0.374,0.297-0.504,0.535H40.15z M45.568,342.296v-0.195c-0.209,0.111-0.439,0.194-0.692,0.25c-0.252,0.056-0.481,0.084-0.688,0.084 c-0.448,0-0.812-0.119-1.092-0.356c-0.279-0.237-0.419-0.5-0.419-0.788c0-0.35,0.179-0.675,0.535-0.975 c0.357-0.3,0.851-0.45,1.479-0.45c0.253,0,0.545,0.027,0.876,0.082v-0.2c0-0.124-0.054-0.227-0.161-0.305 c-0.107-0.079-0.312-0.118-0.612-0.118c-0.247,0-0.567,0.049-0.961,0.146c-0.146,0.035-0.261,0.053-0.342,0.053 c-0.111,0-0.206-0.04-0.283-0.12s-0.116-0.183-0.116-0.308c0-0.07,0.014-0.131,0.041-0.183s0.065-0.093,0.114-0.124 s0.15-0.068,0.305-0.112c0.206-0.057,0.417-0.103,0.631-0.137c0.215-0.033,0.409-0.051,0.583-0.051c0.518,0,0.92,0.112,1.207,0.336 c0.286,0.224,0.429,0.53,0.429,0.918v1.718h0.143c0.201,0,0.344,0.039,0.43,0.116s0.128,0.179,0.128,0.304 c0,0.122-0.042,0.222-0.128,0.299s-0.229,0.116-0.43,0.116H45.568z M45.568,340.802c-0.334-0.065-0.643-0.098-0.925-0.098 c-0.339,0-0.631,0.083-0.875,0.248c-0.151,0.106-0.228,0.214-0.228,0.322c0,0.078,0.036,0.143,0.109,0.191 c0.136,0.089,0.322,0.134,0.558,0.134c0.201,0,0.429-0.039,0.683-0.118c0.254-0.078,0.479-0.186,0.678-0.321V340.802z M52.569,337.016v4.445h0.143c0.198,0,0.341,0.039,0.428,0.116s0.13,0.179,0.13,0.304c0,0.122-0.043,0.222-0.128,0.299 c-0.086,0.077-0.229,0.116-0.43,0.116h-0.978v-0.203c-0.189,0.111-0.389,0.195-0.596,0.252c-0.208,0.057-0.423,0.086-0.646,0.086 c-0.627,0-1.132-0.182-1.515-0.544s-0.574-0.813-0.574-1.354c0-0.564,0.201-1.046,0.603-1.445c0.402-0.398,0.892-0.599,1.47-0.599 c0.218,0,0.431,0.033,0.64,0.1c0.209,0.067,0.415,0.167,0.618,0.3v-1.038h-0.142c-0.201,0-0.345-0.039-0.43-0.116 c-0.086-0.077-0.129-0.177-0.129-0.299c0-0.125,0.043-0.227,0.129-0.304c0.085-0.077,0.229-0.116,0.43-0.116H52.569z M51.734,340.558c0-0.345-0.12-0.637-0.362-0.875c-0.241-0.239-0.537-0.358-0.887-0.358c-0.348,0-0.643,0.119-0.884,0.358 c-0.241,0.238-0.362,0.526-0.362,0.862c0,0.308,0.108,0.559,0.326,0.756c0.217,0.196,0.523,0.295,0.92,0.295 c0.394,0,0.7-0.099,0.92-0.295C51.625,341.104,51.734,340.856,51.734,340.558z M56.024,342.268l-1.445-2.834 c-0.136-0.016-0.238-0.062-0.309-0.138c-0.071-0.076-0.106-0.169-0.106-0.277c0-0.125,0.043-0.226,0.129-0.303 c0.085-0.078,0.229-0.116,0.429-0.116h0.762c0.201,0,0.344,0.038,0.43,0.116c0.085,0.077,0.128,0.178,0.128,0.303 c0,0.122-0.043,0.222-0.128,0.3c-0.086,0.077-0.221,0.115-0.405,0.115l0.985,1.918l0.977-1.918c-0.179,0-0.312-0.038-0.396-0.115 c-0.086-0.078-0.129-0.179-0.129-0.304c0-0.122,0.043-0.222,0.129-0.299c0.085-0.078,0.229-0.116,0.43-0.116h0.785 c0.198,0,0.34,0.038,0.426,0.116c0.085,0.077,0.128,0.178,0.128,0.303c0,0.111-0.036,0.206-0.11,0.283 c-0.073,0.077-0.182,0.121-0.325,0.132l-1.913,3.771c0.209,0,0.346,0.02,0.411,0.061c0.13,0.084,0.195,0.204,0.195,0.358 c0,0.122-0.043,0.222-0.128,0.299c-0.086,0.078-0.229,0.116-0.43,0.116h-1.82c-0.2,0-0.344-0.038-0.429-0.116 c-0.086-0.077-0.129-0.177-0.129-0.299c0-0.125,0.043-0.226,0.129-0.304c0.085-0.077,0.229-0.115,0.429-0.115h0.831L56.024,342.268 z" fill="#ffffff"/></g><g id="change3_1"><path d="M477.066,0H0.5C0.224,0,0,0.224,0,0.5v409.57c0,0.276,0.224,0.5,0.5,0.5h476.566c0.276,0,0.5-0.224,0.5-0.5 V0.5C477.566,0.224,477.343,0,477.066,0z M476.566,409.57H1V1h475.566V409.57z M5.518,26.824h466.53c0.276,0,0.5-0.224,0.5-0.5 V5.356c0-0.276-0.224-0.5-0.5-0.5H5.518c-0.276,0-0.5,0.224-0.5,0.5v20.968C5.018,26.6,5.242,26.824,5.518,26.824z M6.018,5.856 h465.53v19.968H6.018V5.856z M428.094,7.952H412.9c-0.276,0-0.5,0.224-0.5,0.5v15.194c0,0.276,0.224,0.5,0.5,0.5h15.193 c0.276,0,0.5-0.224,0.5-0.5V8.452C428.594,8.176,428.37,7.952,428.094,7.952z M427.594,23.146H413.4V8.952h14.193V23.146z M447.418,7.952h-15.193c-0.276,0-0.5,0.224-0.5,0.5v15.194c0,0.276,0.224,0.5,0.5,0.5h15.193c0.276,0,0.5-0.224,0.5-0.5V8.452 C447.918,8.176,447.694,7.952,447.418,7.952z M446.918,23.146h-14.193V8.952h14.193V23.146z M466.743,7.952h-15.194 c-0.276,0-0.5,0.224-0.5,0.5v15.194c0,0.276,0.224,0.5,0.5,0.5h15.194c0.276,0,0.5-0.224,0.5-0.5V8.452 C467.243,8.176,467.02,7.952,466.743,7.952z M466.243,23.146h-14.194V8.952h14.194V23.146z M435.217,21.251h9.382 c0.276,0,0.5-0.224,0.5-0.5V11.37c0-0.276-0.224-0.5-0.5-0.5h-9.382c-0.276,0-0.5,0.224-0.5,0.5v9.381 C434.717,21.027,434.94,21.251,435.217,21.251z M435.717,20.251v-6.689h8.382v6.689H435.717z M415.307,20.751 c0-0.276,0.224-0.5,0.5-0.5h9.381c0.276,0,0.5,0.224,0.5,0.5s-0.224,0.5-0.5,0.5h-9.381 C415.53,21.251,415.307,21.027,415.307,20.751z M454.963,19.525l3.476-3.476l-3.476-3.476c-0.195-0.195-0.195-0.512,0-0.707 s0.512-0.195,0.707,0l3.476,3.476l3.476-3.476c0.195-0.195,0.512-0.195,0.707,0s0.195,0.512,0,0.707l-3.476,3.476l3.476,3.476 c0.195,0.195,0.195,0.512,0,0.707c-0.098,0.098-0.226,0.146-0.354,0.146s-0.256-0.049-0.354-0.146l-3.476-3.476l-3.476,3.476 c-0.098,0.098-0.226,0.146-0.354,0.146s-0.256-0.049-0.354-0.146C454.768,20.037,454.768,19.721,454.963,19.525z M16.63,40.407 c-0.111,0.123-0.257,0.185-0.437,0.185c-0.176,0-0.319-0.061-0.431-0.182s-0.167-0.326-0.167-0.615v-0.633h-3.064v1.74h1.055 c0-0.312,0.029-0.514,0.088-0.604c0.121-0.191,0.293-0.287,0.516-0.287c0.176,0,0.319,0.062,0.431,0.185s0.167,0.329,0.167,0.618 v1.383c0,0.289-0.056,0.495-0.167,0.618S14.363,43,14.184,43c-0.219,0-0.389-0.096-0.51-0.287c-0.059-0.09-0.088-0.293-0.088-0.609 h-1.055v1.758h1.23c0.289,0,0.495,0.056,0.618,0.167s0.185,0.257,0.185,0.437c0,0.176-0.062,0.319-0.185,0.431 s-0.329,0.167-0.618,0.167h-2.619c-0.289,0-0.495-0.056-0.618-0.167s-0.185-0.257-0.185-0.437c0-0.176,0.062-0.319,0.188-0.431 s0.33-0.167,0.615-0.167h0.188v-4.699h-0.188c-0.289,0-0.495-0.056-0.618-0.167s-0.185-0.257-0.185-0.437s0.062-0.325,0.185-0.437 s0.329-0.167,0.618-0.167l5.654,0.006v1.834C16.797,40.08,16.741,40.284,16.63,40.407z M20.986,37.463v1.271h-1.43v-1.271H20.986z M19.949,43.861v-2.918h-0.967c-0.285,0-0.49-0.056-0.615-0.167S18.18,40.52,18.18,40.34c0-0.176,0.062-0.319,0.185-0.431 s0.329-0.167,0.618-0.167h2.168v4.119h1.441c0.289,0,0.495,0.056,0.618,0.167s0.185,0.257,0.185,0.437 c0,0.176-0.062,0.319-0.185,0.431s-0.329,0.167-0.618,0.167h-4.084c-0.289,0-0.495-0.056-0.618-0.167s-0.185-0.257-0.185-0.437 c0-0.176,0.062-0.319,0.185-0.431s0.329-0.167,0.618-0.167H19.949z M27.156,43.861v-5.197h-0.967c-0.285,0-0.49-0.056-0.615-0.167 s-0.188-0.257-0.188-0.437c0-0.176,0.062-0.319,0.185-0.431s0.329-0.167,0.618-0.167h2.168v6.398h1.441 c0.289,0,0.495,0.056,0.618,0.167s0.185,0.257,0.185,0.437c0,0.176-0.062,0.319-0.185,0.431s-0.329,0.167-0.618,0.167h-4.084 c-0.289,0-0.495-0.056-0.618-0.167s-0.185-0.257-0.185-0.437c0-0.176,0.062-0.319,0.185-0.431s0.329-0.167,0.618-0.167H27.156z M37.973,42.502c0-0.391-0.062-0.734-0.188-1.031c-0.184-0.426-0.416-0.783-0.697-1.072c-0.199-0.199-0.503-0.385-0.911-0.557 s-0.856-0.258-1.345-0.258c-0.812,0-1.53,0.265-2.153,0.794s-0.935,1.216-0.935,2.06c0,0.793,0.288,1.461,0.864,2.004 s1.345,0.814,2.306,0.814c0.559,0,1.141-0.065,1.746-0.196s0.986-0.269,1.143-0.413c0.117-0.109,0.176-0.242,0.176-0.398 c0-0.172-0.055-0.314-0.164-0.428s-0.244-0.17-0.404-0.17c-0.117,0-0.328,0.039-0.633,0.117c-0.738,0.191-1.33,0.287-1.775,0.287 c-0.543,0-0.974-0.096-1.292-0.287s-0.54-0.443-0.665-0.756h4.928V42.502z M33.08,41.811c0.188-0.344,0.43-0.601,0.727-0.771 s0.648-0.255,1.055-0.255c0.41,0,0.764,0.085,1.061,0.255s0.537,0.427,0.721,0.771H33.08z M53.851,39.162l-2.467,5.9H50.23 l-2.461-5.9c-0.281,0-0.467-0.031-0.557-0.094c-0.188-0.121-0.281-0.291-0.281-0.51c0-0.18,0.062-0.325,0.185-0.437 s0.329-0.167,0.618-0.167l1.623,0.006c0.285,0,0.489,0.055,0.612,0.164s0.185,0.254,0.185,0.434s-0.061,0.325-0.182,0.437 s-0.326,0.167-0.615,0.167h-0.281l1.729,4.148l1.74-4.148h-0.275c-0.289,0-0.495-0.056-0.618-0.167s-0.185-0.257-0.185-0.437 s0.062-0.325,0.185-0.437s0.329-0.167,0.618-0.167l1.611,0.006c0.289,0,0.495,0.055,0.618,0.164s0.185,0.254,0.185,0.434 c0,0.215-0.094,0.385-0.281,0.51C54.312,39.131,54.128,39.162,53.851,39.162z M58.439,37.463v1.271h-1.43v-1.271H58.439z M57.402,43.861v-2.918h-0.967c-0.285,0-0.49-0.056-0.615-0.167s-0.188-0.257-0.188-0.437c0-0.176,0.062-0.319,0.185-0.431 s0.329-0.167,0.618-0.167h2.168v4.119h1.441c0.289,0,0.495,0.056,0.618,0.167s0.185,0.257,0.185,0.437 c0,0.176-0.062,0.319-0.185,0.431s-0.329,0.167-0.618,0.167H55.96c-0.289,0-0.495-0.056-0.618-0.167s-0.185-0.257-0.185-0.437 c0-0.176,0.062-0.319,0.185-0.431s0.329-0.167,0.618-0.167H57.402z M68.224,42.502c0-0.391-0.062-0.734-0.188-1.031 c-0.184-0.426-0.416-0.783-0.697-1.072c-0.199-0.199-0.503-0.385-0.911-0.557s-0.856-0.258-1.345-0.258 c-0.812,0-1.53,0.265-2.153,0.794s-0.935,1.216-0.935,2.06c0,0.793,0.288,1.461,0.864,2.004s1.345,0.814,2.306,0.814 c0.559,0,1.141-0.065,1.746-0.196s0.986-0.269,1.143-0.413c0.117-0.109,0.176-0.242,0.176-0.398c0-0.172-0.055-0.314-0.164-0.428 s-0.244-0.17-0.404-0.17c-0.117,0-0.328,0.039-0.633,0.117c-0.738,0.191-1.33,0.287-1.775,0.287c-0.543,0-0.974-0.096-1.292-0.287 s-0.54-0.443-0.665-0.756h4.928V42.502z M63.332,41.811c0.188-0.344,0.43-0.601,0.727-0.771s0.648-0.255,1.055-0.255 c0.41,0,0.764,0.085,1.061,0.255s0.537,0.427,0.721,0.771H63.332z M71.3,40.803c-0.105,0.094-0.312,0.141-0.621,0.141l0.457,1.904 l0.744-1.951h1.066l0.75,1.951l0.469-1.904c-0.297,0-0.492-0.029-0.586-0.088c-0.188-0.121-0.281-0.293-0.281-0.516 c0-0.176,0.062-0.319,0.185-0.431s0.329-0.167,0.618-0.167h1.131c0.289,0,0.495,0.056,0.618,0.167s0.185,0.257,0.185,0.437 c0,0.16-0.054,0.296-0.161,0.407s-0.267,0.175-0.478,0.19l-0.984,4.119h-1.113l-0.879-2.215l-0.832,2.215h-1.131l-1.008-4.119 c-0.219-0.012-0.384-0.073-0.495-0.185s-0.167-0.251-0.167-0.419c0-0.176,0.062-0.319,0.185-0.431s0.329-0.167,0.618-0.167h1.119 c0.289,0,0.495,0.056,0.618,0.167s0.185,0.257,0.185,0.437S71.441,40.678,71.3,40.803z M91.712,40.246 c0-0.637-0.237-1.177-0.712-1.62s-1.118-0.665-1.931-0.665l-2.766-0.006c-0.289,0-0.495,0.056-0.618,0.167 s-0.185,0.257-0.185,0.437s0.062,0.325,0.185,0.437s0.329,0.167,0.618,0.167h0.188v4.699h-0.188c-0.285,0-0.49,0.056-0.615,0.167 s-0.188,0.255-0.188,0.431c0,0.18,0.062,0.325,0.185,0.437s0.329,0.167,0.618,0.167h2.602c0.289,0,0.495-0.056,0.618-0.167 s0.185-0.255,0.185-0.431c0-0.18-0.062-0.325-0.185-0.437s-0.329-0.167-0.618-0.167h-1.213v-1.236h1.137 c0.484,0,0.874-0.058,1.169-0.173s0.584-0.287,0.867-0.516s0.485-0.46,0.606-0.694C91.632,40.93,91.712,40.598,91.712,40.246z M90.051,41.069c-0.307,0.236-0.722,0.354-1.245,0.354h-1.113v-2.262h1.383c0.461,0,0.815,0.105,1.063,0.316 s0.372,0.457,0.372,0.738C90.511,40.549,90.357,40.833,90.051,41.069z M94.987,43.861v-5.197h-0.967 c-0.285,0-0.49-0.056-0.615-0.167s-0.188-0.257-0.188-0.437c0-0.176,0.062-0.319,0.185-0.431s0.329-0.167,0.618-0.167h2.168v6.398 h1.441c0.289,0,0.495,0.056,0.618,0.167s0.185,0.257,0.185,0.437c0,0.176-0.062,0.319-0.185,0.431s-0.329,0.167-0.618,0.167h-4.084 c-0.289,0-0.495-0.056-0.618-0.167s-0.185-0.257-0.185-0.437c0-0.176,0.062-0.319,0.185-0.431s0.329-0.167,0.618-0.167H94.987z M105.276,45.062c0.289,0,0.495-0.056,0.618-0.167s0.185-0.255,0.185-0.431c0-0.18-0.062-0.325-0.185-0.437 s-0.329-0.167-0.618-0.167h-0.205v-2.473c0-0.559-0.206-0.999-0.618-1.321s-0.991-0.483-1.737-0.483 c-0.25,0-0.529,0.024-0.838,0.073s-0.611,0.114-0.908,0.196c-0.223,0.062-0.369,0.116-0.439,0.161s-0.125,0.104-0.164,0.179 s-0.059,0.162-0.059,0.264c0,0.18,0.056,0.327,0.167,0.442s0.247,0.173,0.407,0.173c0.117,0,0.281-0.025,0.492-0.076 c0.566-0.141,1.027-0.211,1.383-0.211c0.434,0,0.728,0.057,0.882,0.17s0.231,0.26,0.231,0.439v0.287 c-0.477-0.078-0.896-0.117-1.26-0.117c-0.906,0-1.616,0.216-2.13,0.647s-0.771,0.899-0.771,1.403c0,0.414,0.201,0.792,0.604,1.134 s0.926,0.513,1.57,0.513c0.297,0,0.627-0.04,0.99-0.12s0.695-0.2,0.996-0.36v0.281H105.276z M102.895,43.891 c-0.365,0.113-0.692,0.17-0.981,0.17c-0.34,0-0.607-0.064-0.803-0.193c-0.105-0.07-0.158-0.162-0.158-0.275 c0-0.156,0.109-0.311,0.328-0.463c0.352-0.238,0.771-0.357,1.26-0.357c0.406,0,0.85,0.047,1.33,0.141v0.516 C103.585,43.623,103.26,43.777,102.895,43.891z M112.747,40.943l-2.754,5.426c0.301,0,0.498,0.029,0.592,0.088 c0.188,0.121,0.281,0.293,0.281,0.516c0,0.176-0.062,0.319-0.185,0.431s-0.329,0.167-0.618,0.167h-2.619 c-0.289,0-0.495-0.056-0.618-0.167s-0.185-0.255-0.185-0.431c0-0.18,0.062-0.325,0.185-0.437s0.329-0.167,0.618-0.167h1.195 l0.68-1.348l-2.08-4.078c-0.195-0.023-0.344-0.09-0.445-0.199s-0.152-0.242-0.152-0.398c0-0.18,0.062-0.325,0.185-0.437 s0.329-0.167,0.618-0.167h1.096c0.289,0,0.495,0.056,0.618,0.167s0.185,0.257,0.185,0.437c0,0.176-0.062,0.319-0.185,0.431 s-0.317,0.167-0.583,0.167l1.418,2.76l1.406-2.76c-0.258,0-0.448-0.056-0.571-0.167s-0.185-0.257-0.185-0.437 c0-0.176,0.062-0.319,0.185-0.431s0.329-0.167,0.618-0.167h1.131c0.285,0,0.489,0.056,0.612,0.167s0.185,0.257,0.185,0.437 c0,0.16-0.053,0.296-0.158,0.407S112.954,40.928,112.747,40.943z M129.114,44.465c0,0.176-0.062,0.319-0.185,0.431 s-0.329,0.167-0.618,0.167h-1.471c-0.289,0-0.495-0.056-0.618-0.167s-0.185-0.257-0.185-0.437c0-0.176,0.062-0.319,0.188-0.431 s0.33-0.167,0.615-0.167h0.188v-1.74h-2.566v1.74h0.188c0.289,0,0.495,0.056,0.618,0.167s0.185,0.257,0.185,0.437 c0,0.176-0.062,0.319-0.185,0.431s-0.329,0.167-0.618,0.167h-1.471c-0.289,0-0.495-0.056-0.618-0.167s-0.185-0.257-0.185-0.437 c0-0.219,0.096-0.389,0.287-0.51c0.094-0.062,0.293-0.092,0.598-0.088v-4.699c-0.211-0.02-0.37-0.084-0.478-0.193 s-0.161-0.246-0.161-0.41c0-0.18,0.062-0.325,0.185-0.437s0.329-0.167,0.618-0.167l1.225,0.006c0.289,0,0.495,0.055,0.618,0.164 s0.185,0.254,0.185,0.434s-0.062,0.325-0.185,0.437s-0.329,0.167-0.618,0.167h-0.188v1.758h2.566v-1.758h-0.188 c-0.289,0-0.495-0.056-0.618-0.167s-0.185-0.257-0.185-0.437s0.062-0.325,0.185-0.437s0.329-0.167,0.618-0.167l1.225,0.006 c0.289,0,0.495,0.055,0.618,0.164s0.185,0.254,0.185,0.434c0,0.164-0.054,0.301-0.161,0.41s-0.267,0.174-0.478,0.193v4.699 c0.309,0,0.508,0.029,0.598,0.088C129.019,44.07,129.114,44.242,129.114,44.465z M135.929,42.502c0-0.391-0.062-0.734-0.188-1.031 c-0.184-0.426-0.416-0.783-0.697-1.072c-0.199-0.199-0.503-0.385-0.911-0.557s-0.856-0.258-1.345-0.258 c-0.812,0-1.53,0.265-2.153,0.794s-0.935,1.216-0.935,2.06c0,0.793,0.288,1.461,0.864,2.004s1.345,0.814,2.306,0.814 c0.559,0,1.141-0.065,1.746-0.196s0.986-0.269,1.143-0.413c0.117-0.109,0.176-0.242,0.176-0.398c0-0.172-0.055-0.314-0.164-0.428 s-0.244-0.17-0.404-0.17c-0.117,0-0.328,0.039-0.633,0.117c-0.738,0.191-1.33,0.287-1.775,0.287c-0.543,0-0.974-0.096-1.292-0.287 s-0.54-0.443-0.665-0.756h4.928V42.502z M131.036,41.811c0.188-0.344,0.43-0.601,0.727-0.771s0.648-0.255,1.055-0.255 c0.41,0,0.764,0.085,1.061,0.255s0.537,0.427,0.721,0.771H131.036z M139.515,43.861v-5.197h-0.967c-0.285,0-0.49-0.056-0.615-0.167 s-0.188-0.257-0.188-0.437c0-0.176,0.062-0.319,0.185-0.431s0.329-0.167,0.618-0.167h2.168v6.398h1.441 c0.289,0,0.495,0.056,0.618,0.167s0.185,0.257,0.185,0.437c0,0.176-0.062,0.319-0.185,0.431s-0.329,0.167-0.618,0.167h-4.084 c-0.289,0-0.495-0.056-0.618-0.167s-0.185-0.257-0.185-0.437c0-0.176,0.062-0.319,0.185-0.431s0.329-0.167,0.618-0.167H139.515z M146.722,44.805c0.301,0.09,0.605,0.135,0.914,0.135c0.715,0,1.357-0.215,1.928-0.645c0.684-0.516,1.025-1.17,1.025-1.963 c0-0.719-0.289-1.356-0.867-1.913s-1.277-0.835-2.098-0.835c-0.316,0-0.625,0.047-0.926,0.141s-0.592,0.236-0.873,0.428v-0.41 h-1.406c-0.289,0-0.495,0.056-0.618,0.167s-0.185,0.255-0.185,0.431c0,0.18,0.062,0.325,0.185,0.437s0.329,0.167,0.618,0.167h0.205 v5.426h-0.205c-0.285,0-0.49,0.056-0.615,0.167s-0.188,0.257-0.188,0.437c0,0.176,0.062,0.319,0.185,0.431s0.329,0.167,0.618,0.167 h2.127c0.289,0,0.495-0.056,0.618-0.167s0.185-0.255,0.185-0.431c0-0.18-0.062-0.325-0.185-0.437s-0.329-0.167-0.618-0.167h-0.721 V44.4C146.122,44.58,146.421,44.715,146.722,44.805z M146.183,41.459c0.352-0.449,0.826-0.674,1.424-0.674 c0.371,0,0.694,0.087,0.97,0.261s0.479,0.391,0.612,0.65s0.199,0.474,0.199,0.642c0,0.332-0.17,0.648-0.51,0.949 s-0.764,0.451-1.271,0.451c-0.504,0-0.927-0.151-1.269-0.454s-0.513-0.614-0.513-0.935 C145.825,42.064,145.944,41.768,146.183,41.459z M16.207,47.57c0,0.276-0.224,0.5-0.5,0.5h-5.389c-0.276,0-0.5-0.224-0.5-0.5 s0.224-0.5,0.5-0.5h5.389C15.983,47.07,16.207,47.294,16.207,47.57z M53.302,47.07c0.276,0,0.5,0.224,0.5,0.5s-0.224,0.5-0.5,0.5 h-5.389c-0.276,0-0.5-0.224-0.5-0.5s0.224-0.5,0.5-0.5H53.302z M90.926,47.07c0.276,0,0.5,0.224,0.5,0.5s-0.224,0.5-0.5,0.5h-5.389 c-0.276,0-0.5-0.224-0.5-0.5s0.224-0.5,0.5-0.5H90.926z M129.051,47.57c0,0.276-0.224,0.5-0.5,0.5h-5.389 c-0.276,0-0.5-0.224-0.5-0.5s0.224-0.5,0.5-0.5h5.389C128.827,47.07,129.051,47.294,129.051,47.57z M35.748,356.441 c-11.789,0-21.38,9.591-21.38,21.38s9.591,21.38,21.38,21.38s21.38-9.591,21.38-21.38S47.537,356.441,35.748,356.441z M35.748,398.201c-11.237,0-20.38-9.143-20.38-20.38s9.143-20.38,20.38-20.38s20.38,9.143,20.38,20.38 S46.985,398.201,35.748,398.201z M30.641,366.856l15.322,10.966l-15.322,10.966V366.856z M79.136,369.953 c-8.063,0-14.624,6.561-14.624,14.624s6.561,14.624,14.624,14.624s14.624-6.561,14.624-14.624S87.199,369.953,79.136,369.953z M79.136,398.201c-7.512,0-13.624-6.111-13.624-13.624s6.112-13.624,13.624-13.624s13.624,6.111,13.624,13.624 S86.648,398.201,79.136,398.201z M74.69,380.131h8.891v8.891H74.69V380.131z M123.38,378.837h-11.533 c-4.17,0-7.562,3.392-7.562,7.562s3.392,7.562,7.562,7.562h11.533c4.17,0,7.562-3.393,7.562-7.562S127.55,378.837,123.38,378.837z M123.38,392.961h-11.533c-3.618,0-6.562-2.944-6.562-6.562s2.944-6.562,6.562-6.562h11.533c3.618,0,6.562,2.943,6.562,6.562 S126.999,392.961,123.38,392.961z M156.728,378.837h-11.533c-4.17,0-7.562,3.392-7.562,7.562s3.392,7.562,7.562,7.562h11.533 c4.17,0,7.562-3.393,7.562-7.562S160.897,378.837,156.728,378.837z M156.728,392.961h-11.533c-3.618,0-6.562-2.944-6.562-6.562 s2.944-6.562,6.562-6.562h11.533c3.619,0,6.562,2.943,6.562,6.562S160.346,392.961,156.728,392.961z M143.235,367.486 c1.375,0,2.587-0.662,3.373-1.671h287.257c1.429,0,2.592-1.162,2.592-2.591v-0.278c0-1.429-1.163-2.591-2.592-2.591H146.608 c-0.786-1.009-1.998-1.671-3.373-1.671h-1.379h-9.431h-1.378c-2.172,0-3.952,1.627-4.232,3.724c0,0,0,0,0,0 c-0.038,0.18-0.057,0.36-0.057,0.538v0.027v0.224c0,0.006,0,0.012,0,0.018c0,0.003,0,0.007,0,0.01c0,0.178,0.019,0.358,0.057,0.538 c0,0,0,0,0,0c0.28,2.096,2.061,3.724,4.232,3.724h1.378h9.431H143.235z M147.209,361.355h286.656c0.878,0,1.592,0.714,1.592,1.591 v0.278c0,0.877-0.714,1.591-1.592,1.591H147.209c0.066-0.161,0.103-0.331,0.149-0.498c0.025-0.092,0.063-0.179,0.082-0.273 c0.056-0.277,0.086-0.56,0.086-0.847v-0.224c0-0.287-0.03-0.57-0.086-0.847c-0.019-0.095-0.057-0.181-0.082-0.273 C147.312,361.686,147.274,361.516,147.209,361.355z M146.24,361.648c0.02,0.046,0.036,0.094,0.055,0.14 c0.054,0.138,0.098,0.281,0.133,0.427c0.013,0.054,0.027,0.108,0.037,0.162c0.036,0.194,0.06,0.392,0.06,0.596v0.224 c0,0.204-0.025,0.402-0.06,0.596c-0.01,0.055-0.024,0.108-0.037,0.162c-0.035,0.146-0.079,0.289-0.133,0.427 c-0.018,0.047-0.034,0.094-0.055,0.14c-0.511,1.154-1.664,1.963-3.005,1.963h-0.879v-6.802h0.879 C144.577,359.685,145.729,360.494,146.24,361.648z M127.799,363.609c0-0.004,0.001-0.008,0.001-0.012l-0.008-0.063 c-0.012-0.112-0.034-0.222-0.034-0.337v-0.224c0-0.115,0.022-0.225,0.034-0.337l0.008-0.063c0-0.004-0.001-0.008-0.001-0.012 c0.205-1.618,1.575-2.877,3.248-2.877h0.878v6.802h-0.878C129.375,366.486,128.005,365.227,127.799,363.609z M132.926,366.486 v-6.802h8.431v6.802H132.926z M101.5,361.26c-0.232-0.146-0.516-0.22-0.85-0.22c-0.583,0-1.031,0.249-1.343,0.747 c-0.312,0.498-0.469,1.018-0.469,1.558v0.916c0,0.444,0.104,0.866,0.312,1.264c0.208,0.397,0.428,0.67,0.66,0.818 c0.231,0.147,0.516,0.222,0.853,0.222c0.583,0,1.032-0.248,1.346-0.745c0.313-0.496,0.47-1.017,0.47-1.559v-0.916 c0-0.448-0.105-0.871-0.315-1.269S101.731,361.406,101.5,361.26z M101.64,364.261c0,0.461-0.12,0.848-0.362,1.16 c-0.16,0.206-0.364,0.309-0.614,0.309c-0.264,0-0.466-0.093-0.606-0.28c-0.255-0.337-0.383-0.733-0.383-1.188v-0.916 c0-0.462,0.121-0.849,0.362-1.16c0.16-0.207,0.366-0.31,0.619-0.31c0.26,0,0.462,0.094,0.606,0.28 c0.252,0.34,0.378,0.736,0.378,1.189V364.261z M105.67,365.481c0.195,0,0.349,0.053,0.46,0.159 c0.111,0.105,0.167,0.237,0.167,0.395s-0.056,0.289-0.167,0.395c-0.111,0.106-0.265,0.159-0.46,0.159s-0.349-0.053-0.46-0.159 c-0.111-0.105-0.167-0.237-0.167-0.395s0.056-0.289,0.167-0.395C105.321,365.534,105.475,365.481,105.67,365.481z M106.122,362.909 c0.111,0.105,0.167,0.237,0.167,0.395s-0.056,0.289-0.167,0.395c-0.111,0.106-0.265,0.159-0.46,0.159s-0.349-0.053-0.46-0.159 c-0.111-0.105-0.167-0.237-0.167-0.395s0.056-0.289,0.167-0.395c0.111-0.106,0.265-0.159,0.46-0.159 S106.011,362.803,106.122,362.909z M109.817,366.343c0.231,0.147,0.516,0.222,0.853,0.222c0.583,0,1.032-0.248,1.346-0.745 c0.313-0.496,0.47-1.017,0.47-1.559v-0.916c0-0.448-0.105-0.871-0.315-1.269s-0.432-0.67-0.663-0.816 c-0.232-0.146-0.516-0.22-0.85-0.22c-0.583,0-1.031,0.249-1.343,0.747c-0.312,0.498-0.469,1.018-0.469,1.558v0.916 c0,0.444,0.104,0.866,0.312,1.264C109.365,365.922,109.585,366.194,109.817,366.343z M109.681,363.345 c0-0.462,0.121-0.849,0.362-1.16c0.16-0.207,0.366-0.31,0.619-0.31c0.26,0,0.462,0.094,0.606,0.28 c0.252,0.34,0.378,0.736,0.378,1.189v0.916c0,0.461-0.12,0.848-0.362,1.16c-0.16,0.206-0.364,0.309-0.614,0.309 c-0.264,0-0.466-0.093-0.606-0.28c-0.255-0.337-0.383-0.733-0.383-1.188V363.345z M114.82,366.343 c0.231,0.147,0.516,0.222,0.853,0.222c0.583,0,1.032-0.248,1.346-0.745c0.313-0.496,0.47-1.017,0.47-1.559v-0.916 c0-0.448-0.105-0.871-0.315-1.269s-0.432-0.67-0.663-0.816c-0.232-0.146-0.516-0.22-0.85-0.22c-0.583,0-1.031,0.249-1.343,0.747 c-0.312,0.498-0.469,1.018-0.469,1.558v0.916c0,0.444,0.104,0.866,0.312,1.264C114.368,365.922,114.588,366.194,114.82,366.343z M114.684,363.345c0-0.462,0.121-0.849,0.362-1.16c0.16-0.207,0.366-0.31,0.619-0.31c0.26,0,0.462,0.094,0.606,0.28 c0.252,0.34,0.378,0.736,0.378,1.189v0.916c0,0.461-0.12,0.848-0.362,1.16c-0.16,0.206-0.364,0.309-0.614,0.309 c-0.264,0-0.466-0.093-0.606-0.28c-0.255-0.337-0.383-0.733-0.383-1.188V363.345z M448.899,361.175l-1.999,3.403v0.696h2.268v0.333 h-0.326c-0.2,0-0.344,0.039-0.43,0.116c-0.085,0.077-0.128,0.178-0.128,0.3c0,0.124,0.043,0.226,0.128,0.303 c0.086,0.077,0.229,0.116,0.43,0.116h1.12c0.2,0,0.344-0.039,0.429-0.116c0.086-0.077,0.129-0.177,0.129-0.299 s-0.042-0.223-0.126-0.302c-0.085-0.078-0.215-0.118-0.392-0.118v-0.333c0.174,0,0.304-0.04,0.389-0.118 c0.086-0.079,0.129-0.18,0.129-0.302s-0.042-0.222-0.126-0.299c-0.085-0.077-0.215-0.116-0.392-0.116v-3.265H448.899z M449.168,364.439h-1.209l1.209-2.052V364.439z M454.252,365.641c0.111,0.105,0.167,0.237,0.167,0.395s-0.056,0.289-0.167,0.395 c-0.111,0.106-0.265,0.159-0.46,0.159s-0.349-0.053-0.46-0.159c-0.111-0.105-0.167-0.237-0.167-0.395s0.056-0.289,0.167-0.395 c0.111-0.106,0.265-0.159,0.46-0.159S454.141,365.534,454.252,365.641z M453.324,363.698c-0.111-0.105-0.167-0.237-0.167-0.395 s0.056-0.289,0.167-0.395c0.111-0.106,0.265-0.159,0.46-0.159s0.349,0.053,0.46,0.159c0.111,0.105,0.167,0.237,0.167,0.395 s-0.056,0.289-0.167,0.395c-0.111,0.106-0.265,0.159-0.46,0.159S453.436,363.805,453.324,363.698z M459.629,361.26 c-0.232-0.146-0.516-0.22-0.85-0.22c-0.583,0-1.031,0.249-1.343,0.747c-0.312,0.498-0.469,1.018-0.469,1.558v0.916 c0,0.444,0.104,0.866,0.312,1.264c0.208,0.397,0.428,0.67,0.66,0.818c0.231,0.147,0.516,0.222,0.853,0.222 c0.583,0,1.032-0.248,1.346-0.745c0.313-0.496,0.47-1.017,0.47-1.559v-0.916c0-0.448-0.105-0.871-0.315-1.269 S459.86,361.406,459.629,361.26z M459.769,364.261c0,0.461-0.12,0.848-0.362,1.16c-0.16,0.206-0.364,0.309-0.614,0.309 c-0.264,0-0.466-0.093-0.606-0.28c-0.255-0.337-0.383-0.733-0.383-1.188v-0.916c0-0.462,0.121-0.849,0.362-1.16 c0.16-0.207,0.366-0.31,0.619-0.31c0.26,0,0.462,0.094,0.606,0.28c0.252,0.34,0.378,0.736,0.378,1.189V364.261z M464.632,361.26 c-0.232-0.146-0.516-0.22-0.85-0.22c-0.583,0-1.031,0.249-1.343,0.747c-0.312,0.498-0.469,1.018-0.469,1.558v0.916 c0,0.444,0.104,0.866,0.312,1.264c0.208,0.397,0.428,0.67,0.66,0.818c0.231,0.147,0.516,0.222,0.853,0.222 c0.583,0,1.032-0.248,1.346-0.745c0.313-0.496,0.47-1.017,0.47-1.559v-0.916c0-0.448-0.105-0.871-0.315-1.269 S464.863,361.406,464.632,361.26z M464.771,364.261c0,0.461-0.12,0.848-0.362,1.16c-0.16,0.206-0.364,0.309-0.614,0.309 c-0.264,0-0.466-0.093-0.606-0.28c-0.255-0.337-0.383-0.733-0.383-1.188v-0.916c0-0.462,0.121-0.849,0.362-1.16 c0.16-0.207,0.366-0.31,0.619-0.31c0.26,0,0.462,0.094,0.606,0.28c0.252,0.34,0.378,0.736,0.378,1.189V364.261z M114.806,386.166 l7.66-4.447v9.358l-7.66-4.447v4.453h-2.044v-9.37h2.044V386.166z M153.769,381.714h2.044v9.37h-2.044v-4.452l-7.659,4.447v-9.358 l7.659,4.447V381.714z M5.518,347.334h466.53c0.276,0,0.5-0.224,0.5-0.5v-13.267V55.656c0-0.276-0.224-0.5-0.5-0.5H5.518 c-0.276,0-0.5,0.224-0.5,0.5v277.911v13.267C5.018,347.11,5.242,347.334,5.518,347.334z M471.548,346.334H6.018v-12.267h465.53 V346.334z M471.548,56.156v276.911H6.018V56.156H471.548z M377.057,378.302c-0.169-0.084-0.372-0.065-0.523,0.047l-4.698,3.523 h-6.596c-0.276,0-0.5,0.224-0.5,0.5v7.729c0,0.276,0.224,0.5,0.5,0.5h6.579l4.69,3.987c0.093,0.078,0.208,0.119,0.324,0.119 c0.071,0,0.143-0.016,0.21-0.046c0.177-0.082,0.29-0.259,0.29-0.454v-15.459C377.333,378.56,377.226,378.387,377.057,378.302z M376.333,393.127l-4.007-3.406c-0.091-0.077-0.206-0.119-0.324-0.119h-6.263v-6.729h6.263c0.108,0,0.214-0.035,0.3-0.1 l4.031-3.023V393.127z M381.113,381.563c1.99,2.985,1.99,6.845,0,9.83c-0.097,0.145-0.255,0.223-0.416,0.223 c-0.096,0-0.192-0.027-0.277-0.084c-0.229-0.153-0.292-0.464-0.139-0.693c1.766-2.648,1.766-6.072,0-8.721 c-0.153-0.229-0.091-0.54,0.139-0.693C380.647,381.272,380.959,381.333,381.113,381.563z M384.205,379.245 c2.929,4.395,2.929,10.072,0,14.467c-0.097,0.145-0.255,0.223-0.416,0.223c-0.096,0-0.192-0.027-0.277-0.084 c-0.229-0.153-0.292-0.464-0.139-0.693c2.704-4.058,2.704-9.3,0-13.357c-0.153-0.229-0.091-0.54,0.139-0.693 C383.739,378.954,384.05,379.015,384.205,379.245z M451.713,375.876h-4.811c-0.276,0-0.5,0.224-0.5,0.5v1.071l-55.146,16.148 c-0.238,0.069-0.39,0.305-0.354,0.551s0.246,0.429,0.495,0.429h55.005v0.703c0,0.276,0.224,0.5,0.5,0.5h4.811 c0.276,0,0.5-0.224,0.5-0.5v-18.901C452.213,376.1,451.989,375.876,451.713,375.876z M394.884,393.574l51.519-15.086v15.086 H394.884z M451.213,394.777h-3.811v-0.703v-16.253v-0.945h3.811V394.777z" fill="#1a1a1a"/></g></svg>