<?xml version="1.0" encoding="UTF-8"?><svg xmlns="http://www.w3.org/2000/svg" xmlns:xlink="http://www.w3.org/1999/xlink" height="362.5" preserveAspectRatio="xMidYMid meet" version="1.0" viewBox="0.0 0.0 275.0 362.5" width="275.0" zoomAndPan="magnify"><g id="change1_1"><path d="M275,175v12.5V250h-12.5v37.5V300H250v12.5V325v12.5h-12.5V350H225h-12.5v12.5H200h-12.5H175h-12.5H150h-12.5H125h-12.5H100 V350H87.5H75v-12.5H62.5V325v-12.5H50V300v-12.5V275H37.5v-12.5V250v-12.5H25V225H12.5v-12.5H0V200v-12.5V175v-12.5h12.5H25h12.5H50 V175h12.5v12.5H75V175v-12.5V150v-12.5V125v-12.5V100V87.5V75V62.5V50V37.5V25V12.5h12.5V0H100h12.5H125v12.5h12.5V25v12.5V50v12.5 V75v12.5V100H150V87.5h12.5H175V100h12.5H200h12.5v12.5H225h12.5V125H250v12.5h12.5V150v12.5V175H275z"/></g><g id="change2_1"><path d="M50 175L75 200 87.5 187.5 75 12.5 137.5 12.5 137.5 100 175 100 212.5 112.5 237.5 125 250 137.5 262.5 175 262.5 250 250 300 237.5 337.5 212.5 350 100 350 75 337.5 62.5 312.5 50 275 37.5 237.5 25 225 12.5 212.5 0 162.5z" fill="#d1d3d4"/></g><g id="change1_2"><path d="M25,175v37.5H12.5V175H25z M25,212.5V225h12.5v-12.5H25z M50,237.5V225H37.5v12.5H50z M62.5,262.5H50V275h12.5 V262.5z M75,300H62.5v12.5H75V300z M75,325v12.5h25V325H75z M212.5,325v12.5h25V325H212.5z M100,350h112.5v-12.5H100V350z" opacity=".3"/></g><g id="change1_3"><path d="M100,12.5H87.5V0H100h12.5H125v12.5h-12.5H100z M125,37.5V50v12.5V75v12.5V100v12.5V125v12.5V150v12.5h12.5V150v-12.5V125 v-12.5H150V100h-12.5V87.5V75V62.5V50V37.5V25V12.5H125V25V37.5z M175,100V87.5h-12.5H150V100h12.5H175z M175,125v12.5V150v12.5V175 h12.5v-12.5V150v-12.5V125v-12.5H200h12.5V100H200h-12.5H175v12.5V125z M212.5,137.5V150v12.5V175v12.5H225V175v-12.5V150v-12.5V125 h12.5v-12.5H225h-12.5V125V137.5z M250,137.5V125h-12.5v12.5H250z M250,162.5V175h12.5v-12.5V150v-12.5H250V150V162.5z M62.5,187.5 V175H50v12.5H62.5z M262.5,175v12.5V250H275v-62.5V175H262.5z M12.5,187.5V175H25h12.5H50v-12.5H37.5H25H12.5H0V175v12.5V200v12.5 h12.5V200V187.5z M75,200v12.5V225h12.5v-12.5V200v-12.5V175v-12.5V150v-12.5V125v-12.5V100V87.5V75V62.5V50V37.5V25V12.5H75V25 v12.5V50v12.5V75v12.5V100v12.5V125v12.5V150v12.5V175v12.5H62.5V200H75z M12.5,212.5V225H25v-12.5H12.5z M25,225v12.5h12.5V225H25z M50,250v-12.5H37.5V250v12.5V275H50v-12.5V250z M250,287.5V300h12.5v-12.5V250H250V287.5z M62.5,287.5V275H50v12.5V300v12.5h12.5 V300V287.5z M237.5,312.5V325v12.5H250V325v-12.5V300h-12.5V312.5z M75,312.5H62.5V325v12.5H75V325V312.5z M87.5,337.5H75V350h12.5 H100v-12.5H87.5z M212.5,337.5V350H225h12.5v-12.5H225H212.5z M187.5,350H175h-12.5H150h-12.5H125h-12.5H100v12.5h12.5H125h12.5H150 h12.5H175h12.5H200h12.5V350H200H187.5z"/></g><g id="change3_1"><path d="M62.5,187.5V200H50v-12.5H62.5z M62.5,212.5H75V200H62.5V212.5z M37.5,175v12.5H50V175H37.5z M112.5,162.5H125 v-150h-12.5V162.5z M162.5,175H175v-75h-12.5V175z M200,187.5h12.5v-75H200V187.5z M237.5,137.5V175H250v-37.5H237.5z M250,175v75 h12.5v-75H250z M237.5,300H250v-50h-12.5V300z M225,325h12.5v-25H225V325z" fill="#fff"/></g></svg>