<?xml version="1.0" encoding="UTF-8"?><svg xmlns="http://www.w3.org/2000/svg" xmlns:xlink="http://www.w3.org/1999/xlink" height="425.0" preserveAspectRatio="xMidYMid meet" version="1.0" viewBox="0.0 0.0 810.0 425.0" width="810.0" zoomAndPan="magnify"><g><g><g><g><g><g id="change1_1"><path d="M0 0H810.02V423.57H0z" fill="#dadada"/></g><g id="change2_1"><path d="M810.02 0L4.34 0 0 0 0 3.92 0 425.04 4.34 425.04 4.34 3.92 810.02 3.92 810.02 0z" fill="#fff"/></g><g id="change3_1"><path d="M805.67 0.95L805.67 418.85 0.66 418.85 0.66 425.04 810.02 425.04 810.02 423.57 810.02 418.85 810.02 0.95 805.67 0.95z" fill="#afaab2"/></g><g id="change4_1"><path d="M3.47 3.39H806.5500000000001V43.08H3.47z" fill="#1903bd"/></g><g id="change1_2"><path d="M753.02 7.06H786.04V40.080000000000005H753.02z" fill="#dadada"/></g><g id="change3_2"><path d="M785.04 7.06L785.04 39.07 753.02 39.07 753.02 40.08 785.04 40.08 786.04 40.08 786.04 39.07 786.04 7.06 785.04 7.06z" fill="#afaab2"/></g><g id="change2_2"><path d="M786.04 7.06L754.03 7.06 753.02 7.06 753.02 8.06 753.02 40.08 754.03 40.08 754.03 8.06 786.04 8.06 786.04 7.06z" fill="#fff"/></g><g id="change5_1"><path d="M782.27 13.79L779.31 10.83 769.53 20.61 759.76 10.83 756.8 13.79 766.58 23.57 756.8 33.34 759.76 36.3 769.53 26.52 779.31 36.3 782.27 33.34 772.49 23.57 782.27 13.79z"/></g></g><g><g id="change1_3"><path d="M305.55 331.6H504.46000000000004V392.1H305.55z" fill="#dadada"/></g><g id="change2_5"><path d="M504.46 331.6L309.68 331.6 305.55 331.6 305.55 335.72 305.55 392.1 309.68 392.1 309.68 335.72 504.46 335.72 504.46 331.6z" fill="#fff"/></g><g id="change6_1"><path d="M500.34 331.6L500.34 387.97 305.55 387.97 305.55 392.1 500.34 392.1 504.46 392.1 504.46 392.1 504.46 331.6 500.34 331.6z" fill="#8a878c"/></g></g></g><g><g id="change2_3"><path d="M81.4 179.29H728.62V245.75H81.4z" fill="#fff"/></g><g id="change3_3"><path d="M728.62 179.29L85.93 179.29 81.4 179.29 81.4 183.82 81.4 245.75 85.93 245.75 85.93 183.82 728.62 183.82 728.62 179.29z" fill="#afaab2"/></g><g id="change2_4"><path d="M724.09 179.29L724.09 241.22 81.4 241.22 81.4 245.75 724.09 245.75 728.62 245.75 728.62 245.75 728.62 179.29 724.09 179.29z" fill="#fff"/></g></g><g fill="#3f3f3f" id="change7_1"><path d="M114.86,223.23c-8.02,0-14.54-6.52-14.54-14.54s6.52-14.54,14.54-14.54,14.54,6.52,14.54,14.54-6.52,14.54-14.54,14.54Zm0-23.17c-4.76,0-8.63,3.87-8.63,8.63s3.87,8.63,8.63,8.63,8.63-3.87,8.63-8.63-3.87-8.63-8.63-8.63Z"/><path d="M126.4 210.62H132.31V231.64000000000001H126.4z" transform="rotate(-45 129.363 221.126)"/></g><g fill="#3f3f3f" id="change7_2"><path d="M363.62,364.68c0,.76-.07,1.42-.2,1.98,.13,.53,.2,1.19,.2,1.98s-.07,1.42-.2,1.98h-1.98c.13,.53,.2,1.19,.2,1.98s-.07,1.42-.2,1.98h-11.88c-.13-.56-.2-1.22-.2-1.98s.07-1.45,.2-1.98h-1.98c-.13-.56-.2-1.22-.2-1.98s.07-1.45,.2-1.98h3.96c.13,.53,.2,1.19,.2,1.98s-.07,1.42-.2,1.98h7.92c-.13-.56-.2-1.22-.2-1.98s.07-1.45,.2-1.98c-.13-.56-.2-1.22-.2-1.98s.07-1.45,.2-1.98h-9.9c-.13-.56-.2-1.22-.2-1.98s.07-1.45,.2-1.98h-1.98c-.13-.56-.2-1.22-.2-1.98s.07-1.45,.2-1.98c-.13-.56-.2-1.22-.2-1.98s.07-1.45,.2-1.98h1.98c-.13-.56-.2-1.22-.2-1.98s.07-1.45,.2-1.98h11.88c.13,.53,.2,1.19,.2,1.98s-.07,1.42-.2,1.98h1.98c.13,.53,.2,1.19,.2,1.98s-.07,1.42-.2,1.98h-3.96c-.13-.56-.2-1.22-.2-1.98s.07-1.45,.2-1.98h-7.92c.13,.53,.2,1.19,.2,1.98s-.07,1.42-.2,1.98c.13,.53,.2,1.19,.2,1.98s-.07,1.42-.2,1.98h9.9c.13,.53,.2,1.19,.2,1.98s-.07,1.42-.2,1.98h1.98c.13,.53,.2,1.19,.2,1.98Z"/><path d="M383.23,362.7c.13,.53,.2,1.19,.2,1.98s-.07,1.42-.2,1.98h-10.4c.13,.53,.2,1.19,.2,1.98s-.07,1.42-.2,1.98h8.42c.13,.53,.2,1.19,.2,1.98s-.07,1.42-.2,1.98h-9.9c-.13-.56-.2-1.22-.2-1.98s.07-1.45,.2-1.98h-2.47c-.13-.56-.2-1.22-.2-1.98s.07-1.45,.2-1.98h-1.49c-.13-.56-.2-1.22-.2-1.98s.07-1.45,.2-1.98h1.49c-.13-.56-.2-1.22-.2-1.98s.07-1.45,.2-1.98h2.47c-.13-.56-.2-1.22-.2-1.98s.07-1.45,.2-1.98h9.9c.13,.53,.2,1.19,.2,1.98s-.07,1.42-.2,1.98h1.98c.13,.53,.2,1.19,.2,1.98s-.07,1.42-.2,1.98Zm-4.16-1.98c0-.79,.07-1.45,.2-1.98h-6.44c.13,.53,.2,1.19,.2,1.98s-.07,1.42-.2,1.98h6.44c-.13-.56-.2-1.22-.2-1.98Z"/><path d="M403.23,372.6c0,.76-.07,1.42-.2,1.98h-3.96c-.13-.56-.2-1.22-.2-1.98s.07-1.45,.2-1.98h-1.98c-.13-.56-.2-1.22-.2-1.98s.07-1.45,.2-1.98h-5.94c.13,.53,.2,1.19,.2,1.98s-.07,1.42-.2,1.98h5.94c.13,.53,.2,1.19,.2,1.98s-.07,1.42-.2,1.98h-7.92c-.13-.56-.2-1.22-.2-1.98s.07-1.45,.2-1.98h-1.98c-.13-.56-.2-1.22-.2-1.98s.07-1.45,.2-1.98h1.98c-.13-.56-.2-1.22-.2-1.98s.07-1.45,.2-1.98h7.92c-.13-.56-.2-1.22-.2-1.98s.07-1.45,.2-1.98h-6.93c-.13-.56-.2-1.22-.2-1.98s.07-1.45,.2-1.98h8.91c.13,.53,.2,1.19,.2,1.98s-.07,1.42-.2,1.98h1.98c.13,.53,.2,1.19,.2,1.98s-.07,1.42-.2,1.98c.13,.53,.2,1.19,.2,1.98s-.07,1.42-.2,1.98c.13,.53,.2,1.19,.2,1.98s-.07,1.42-.2,1.98h1.98c.13,.53,.2,1.19,.2,1.98Z"/><path d="M423.03,360.72c0,.76-.07,1.42-.2,1.98h-3.96c-.13-.56-.2-1.22-.2-1.98s.07-1.45,.2-1.98h-3.46c.13,.53,.2,1.19,.2,1.98s-.07,1.42-.2,1.98h-1.48c.13,.53,.2,1.19,.2,1.98s-.07,1.42-.2,1.98c.13,.53,.2,1.19,.2,1.98s-.07,1.42-.2,1.98h2.97c.13,.53,.2,1.19,.2,1.98s-.07,1.42-.2,1.98h-9.9c-.13-.56-.2-1.22-.2-1.98s.07-1.45,.2-1.98h2.97c-.13-.56-.2-1.22-.2-1.98s.07-1.45,.2-1.98c-.13-.56-.2-1.22-.2-1.98s.07-1.45,.2-1.98c-.13-.56-.2-1.22-.2-1.98s.07-1.45,.2-1.98h-2.97c-.13-.56-.2-1.22-.2-1.98s.07-1.45,.2-1.98h4.95c.13,.53,.2,1.19,.2,1.98s-.07,1.42-.2,1.98h1.98c-.13-.56-.2-1.22-.2-1.98s.07-1.45,.2-1.98h7.43c.13,.53,.2,1.19,.2,1.98s-.07,1.42-.2,1.98h1.48c.13,.53,.2,1.19,.2,1.98Z"/><path d="M442.63,366.66c.13,.53,.2,1.19,.2,1.98s-.07,1.42-.2,1.98h-1.98c.13,.53,.2,1.19,.2,1.98s-.07,1.42-.2,1.98h-9.9c-.13-.56-.2-1.22-.2-1.98s.07-1.45,.2-1.98h-1.98c-.13-.56-.2-1.22-.2-1.98s.07-1.45,.2-1.98h-1.98c-.13-.56-.2-1.22-.2-1.98s.07-1.45,.2-1.98h1.98c-.13-.56-.2-1.22-.2-1.98s.07-1.45,.2-1.98h1.98c-.13-.56-.2-1.22-.2-1.98s.07-1.45,.2-1.98h9.9c.13,.53,.2,1.19,.2,1.98s-.07,1.42-.2,1.98h1.98c.13,.53,.2,1.19,.2,1.98s-.07,1.42-.2,1.98h-3.96c-.13-.56-.2-1.22-.2-1.98s.07-1.45,.2-1.98h-5.94c.13,.53,.2,1.19,.2,1.98s-.07,1.42-.2,1.98h-1.98c.13,.53,.2,1.19,.2,1.98s-.07,1.42-.2,1.98h1.98c.13,.53,.2,1.19,.2,1.98s-.07,1.42-.2,1.98h5.94c-.13-.56-.2-1.22-.2-1.98s.07-1.45,.2-1.98h3.96Z"/><path d="M450.56,358.74h1.48c.13,.53,.2,1.19,.2,1.98s-.07,1.42-.2,1.98h-1.48c.13,.53,.2,1.19,.2,1.98s-.07,1.42-.2,1.98c.13,.53,.2,1.19,.2,1.98s-.07,1.42-.2,1.98c.13,.53,.2,1.19,.2,1.98s-.07,1.42-.2,1.98h-3.96c-.13-.56-.2-1.22-.2-1.98s.07-1.45,.2-1.98c-.13-.56-.2-1.22-.2-1.98s.07-1.45,.2-1.98c-.13-.56-.2-1.22-.2-1.98s.07-1.45,.2-1.98c-.13-.56-.2-1.22-.2-1.98s.07-1.45,.2-1.98c-.13-.56-.2-1.22-.2-1.98s.07-1.45,.2-1.98c-.13-.56-.2-1.22-.2-1.98s.07-1.45,.2-1.98c-.13-.56-.2-1.22-.2-1.98s.07-1.45,.2-1.98h3.96c.13,.53,.2,1.19,.2,1.98s-.07,1.42-.2,1.98c.13,.53,.2,1.19,.2,1.98s-.07,1.42-.2,1.98c.13,.53,.2,1.19,.2,1.98s-.07,1.42-.2,1.98Zm12.08,5.94c0,.76-.07,1.42-.2,1.98,.13,.53,.2,1.19,.2,1.98s-.07,1.42-.2,1.98c.13,.53,.2,1.19,.2,1.98s-.07,1.42-.2,1.98h-3.96c-.13-.56-.2-1.22-.2-1.98s.07-1.45,.2-1.98c-.13-.56-.2-1.22-.2-1.98s.07-1.45,.2-1.98c-.13-.56-.2-1.22-.2-1.98s.07-1.45,.2-1.98c-.13-.56-.2-1.22-.2-1.98s.07-1.45,.2-1.98h-6.44c-.13-.56-.2-1.22-.2-1.98s.07-1.45,.2-1.98h7.92c.13,.53,.2,1.19,.2,1.98s-.07,1.42-.2,1.98h2.47c.13,.53,.2,1.19,.2,1.98s-.07,1.42-.2,1.98c.13,.53,.2,1.19,.2,1.98Z"/></g></g></g></g></svg>