<?xml version="1.0" encoding="UTF-8"?><svg xmlns="http://www.w3.org/2000/svg" xmlns:xlink="http://www.w3.org/1999/xlink" fill="none" height="283.2" preserveAspectRatio="xMidYMid meet" style="fill: none;" version="1.0" viewBox="1.0 0.2 290.0 283.2" width="290.0" zoomAndPan="magnify"><g id="change1_1"><path clip-rule="evenodd" d="M2.04199 1.21799H286.042V277.467H2.04199V1.21799ZM9.039 36.849V270.469H279.043V36.849H9.039Z" fill="#EDEDED" fill-rule="evenodd" stroke="#000" stroke-miterlimit="22.926" stroke-width="2.126"/></g><g id="change2_1"><path clip-rule="evenodd" d="M259.67 251.096H279.044V270.469H259.67V251.096ZM208.781 8.957H226.134V26.31H208.781V8.957ZM261.076 8.957H278.429V26.31H261.076V8.957ZM234.929 8.957H252.282V26.31H234.929V8.957ZM9.03906 251.096H28.4131V270.469H9.03906V251.096Z" fill="#fff" fill-rule="evenodd"/></g><g id="change3_1"><path clip-rule="evenodd" d="M265.034 21.417L268.816 17.634L265.034 13.851L265.97 12.915L269.753 16.698L273.536 12.915L274.472 13.851L270.689 17.634L274.472 21.417L273.536 22.353L269.753 18.571L265.97 22.353L265.034 21.417ZM212.162 22.229H222.754V24.214H212.162V22.229ZM238.618 12.045H249.193V23.222C245.467 23.222 241.742 23.222 238.017 23.222V12.045H238.618ZM247.99 15.829H239.219V22.019H247.99V15.829Z" fill="#0D0D0D" fill-rule="evenodd"/></g><g id="change4_1"><path d="M259.67 251.096H28.4131V270.469H259.67V251.096Z" fill="#919191"/></g><g id="change5_1"><path clip-rule="evenodd" d="M286.042 7.11398H290.948V283.363H6.948V277.467H286.042V7.11398ZM226.134 8.95698H208.781V26.31H226.134V8.95698V8.95698ZM278.429 8.95698H261.076V26.31H278.429V8.95698ZM260.414 7.63298H259.752V8.29498V26.971V27.633H260.414H279.09H279.752V26.971V8.29498V7.63298H279.09H260.414ZM252.282 8.95698H234.929V26.31H252.282V8.95698ZM234.267 7.63298H233.605V8.29498V26.971V27.633H234.267H252.944H253.606V26.971V8.29498V7.63298H252.944H234.267ZM208.12 7.63298H207.458V8.29498V26.971V27.633H208.12H226.797H227.459V26.971V8.29498V7.63298H226.797H208.12ZM259.67 250.033H258.607H29.476H28.413H9.039H7.97601V251.096V270.469V271.532H9.039H27.35H28.413H29.476H258.607H259.67H260.733H279.044H280.107V270.469V251.096V250.033H279.044H259.67ZM258.607 269.406V252.159H29.476V269.406H258.607ZM277.98 252.159H260.732V269.406H277.98V252.159ZM27.35 252.159H10.103V269.406H27.35V252.159ZM265.728 255.911V260.783V265.655L269.357 263.219L272.986 260.783L269.357 258.347L265.728 255.911ZM22.355 255.911L18.726 258.347L15.097 260.783L18.726 263.219L22.355 265.655V260.783V255.911Z" fill="#000" fill-rule="evenodd"/></g></svg>