<?xml version="1.0" encoding="UTF-8"?><svg xmlns="http://www.w3.org/2000/svg" xmlns:xlink="http://www.w3.org/1999/xlink" height="500.0" preserveAspectRatio="xMidYMid meet" version="1.0" viewBox="0.0 0.0 453.1 500.0" width="453.1" zoomAndPan="magnify"><g><g id="change1_1"><path d="M421.875 93.75L421.875 78.125 406.25 78.125 406.25 62.5 390.625 62.5 375 62.5 359.375 62.5 343.75 62.5 343.75 46.875 343.75 31.25 328.125 31.25 328.125 15.625 312.5 15.625 296.875 15.625 296.875 31.25 281.25 31.25 281.25 46.875 281.25 62.5 265.625 62.5 250 62.5 234.375 62.5 218.75 62.5 203.125 62.5 187.5 62.5 171.875 62.5 156.25 62.5 156.25 46.875 156.25 31.25 140.625 31.25 140.625 15.625 125 15.625 109.375 15.625 109.375 31.25 93.75 31.25 93.75 46.875 93.75 62.5 78.125 62.5 62.5 62.5 46.875 62.5 31.25 62.5 31.25 78.125 15.625 78.125 15.625 93.75 0 93.75 0 109.375 0 125 0 140.625 0 156.25 0 171.875 0 187.5 0 203.125 0 218.75 0 234.375 0 250 0 265.625 0 281.25 0 296.875 0 312.5 0 328.125 0 343.75 0 359.375 0 375 0 390.625 0 406.25 0 421.875 0 437.5 0 453.125 0 468.75 15.625 468.75 15.625 484.375 31.25 484.375 31.25 500 46.875 500 62.5 500 78.125 500 93.75 500 109.375 500 125 500 140.625 500 156.25 500 171.875 500 187.5 500 203.125 500 218.75 500 234.375 500 250 500 265.625 500 281.25 500 296.875 500 312.5 500 328.125 500 343.75 500 359.375 500 375 500 390.625 500 406.25 500 406.25 484.375 421.875 484.375 421.875 468.75 437.5 468.75 437.5 453.125 437.5 437.5 437.5 421.875 437.5 406.25 437.5 390.625 437.5 375 437.5 359.375 437.5 343.75 437.5 328.125 437.5 312.5 437.5 296.875 437.5 281.25 437.5 265.625 437.5 250 437.5 234.375 437.5 218.75 437.5 203.125 437.5 187.5 437.5 171.875 437.5 156.25 437.5 140.625 437.5 125 437.5 109.375 437.5 93.75z" opacity=".3"/></g><g id="change1_2"><path d="M437.5 78.125L437.5 62.5 421.875 62.5 421.875 46.875 406.25 46.875 390.625 46.875 375 46.875 359.375 46.875 359.375 31.25 359.375 15.625 343.75 15.625 343.75 0 328.125 0 312.5 0 312.5 15.625 296.875 15.625 296.875 31.25 296.875 46.875 281.25 46.875 265.625 46.875 250 46.875 234.375 46.875 218.75 46.875 203.125 46.875 187.5 46.875 171.875 46.875 171.875 31.25 171.875 15.625 156.25 15.625 156.25 0 140.625 0 125 0 125 15.625 109.375 15.625 109.375 31.25 109.375 46.875 93.75 46.875 78.125 46.875 62.5 46.875 46.875 46.875 46.875 62.5 31.25 62.5 31.25 78.125 15.625 78.125 15.625 93.75 15.625 109.375 15.625 125 15.625 140.625 15.625 156.25 15.625 171.875 15.625 187.5 15.625 203.125 15.625 218.75 15.625 234.375 15.625 250 15.625 265.625 15.625 281.25 15.625 296.875 15.625 312.5 15.625 328.125 15.625 343.75 15.625 359.375 15.625 375 15.625 390.625 15.625 406.25 15.625 421.875 15.625 437.5 15.625 453.125 31.25 453.125 31.25 468.75 46.875 468.75 46.875 484.375 62.5 484.375 78.125 484.375 93.75 484.375 109.375 484.375 125 484.375 140.625 484.375 156.25 484.375 171.875 484.375 187.5 484.375 203.125 484.375 218.75 484.375 234.375 484.375 250 484.375 265.625 484.375 281.25 484.375 296.875 484.375 312.5 484.375 328.125 484.375 343.75 484.375 359.375 484.375 375 484.375 390.625 484.375 406.25 484.375 421.875 484.375 421.875 468.75 437.5 468.75 437.5 453.125 453.125 453.125 453.125 437.5 453.125 421.875 453.125 406.25 453.125 390.625 453.125 375 453.125 359.375 453.125 343.75 453.125 328.125 453.125 312.5 453.125 296.875 453.125 281.25 453.125 265.625 453.125 250 453.125 234.375 453.125 218.75 453.125 203.125 453.125 187.5 453.125 171.875 453.125 156.25 453.125 140.625 453.125 125 453.125 109.375 453.125 93.75 453.125 78.125z"/></g><g id="change2_1"><path d="M125 359.375L109.375 359.375 93.75 359.375 78.125 359.375 62.5 359.375 46.875 359.375 46.875 375 62.5 375 62.5 390.625 78.125 390.625 78.125 406.25 93.75 406.25 93.75 421.875 109.375 421.875 109.375 437.5 125 437.5 125 453.125 140.625 453.125 140.625 437.5 140.625 421.875 140.625 406.25 140.625 390.625 140.625 375 125 375z" fill="#FFF"/></g><g id="change3_1"><path d="M109.375 453.125L125 453.125 125 468.75 109.375 468.75 93.75 468.75 78.125 468.75 62.5 468.75 46.875 468.75 46.875 453.125 31.25 453.125 31.25 437.5 31.25 421.875 31.25 406.25 31.25 390.625 31.25 375 46.875 375 46.875 390.625 62.5 390.625 62.5 406.25 78.125 406.25 78.125 421.875 93.75 421.875 93.75 437.5 109.375 437.5z" fill="#9F9FA0"/></g><g id="change1_3"><path d="M125 359.375L109.375 359.375 93.75 359.375 78.125 359.375 62.5 359.375 46.875 359.375 46.875 375 62.5 375 62.5 390.625 78.125 390.625 78.125 406.25 93.75 406.25 93.75 421.875 109.375 421.875 109.375 437.5 125 437.5 125 453.125 140.625 453.125 140.625 437.5 140.625 421.875 140.625 406.25 140.625 390.625 140.625 375 125 375z" opacity=".2"/></g><g id="change2_2"><path d="M421.875 187.5L406.25 187.5 390.625 187.5 375 187.5 359.375 187.5 343.75 187.5 328.125 187.5 312.5 187.5 296.875 187.5 281.25 187.5 265.625 187.5 250 187.5 234.375 187.5 218.75 187.5 203.125 187.5 187.5 187.5 171.875 187.5 156.25 187.5 140.625 187.5 125 187.5 109.375 187.5 93.75 187.5 78.125 187.5 62.5 187.5 46.875 187.5 31.25 187.5 31.25 203.125 31.25 218.75 31.25 234.375 31.25 250 31.25 265.625 31.25 281.25 31.25 296.875 31.25 312.5 31.25 328.125 31.25 343.75 46.875 343.75 62.5 343.75 78.125 343.75 93.75 343.75 109.375 343.75 125 343.75 140.625 343.75 140.625 359.375 156.25 359.375 156.25 375 156.25 390.625 156.25 406.25 156.25 421.875 156.25 437.5 156.25 453.125 156.25 468.75 171.875 468.75 187.5 468.75 203.125 468.75 218.75 468.75 234.375 468.75 250 468.75 265.625 468.75 281.25 468.75 296.875 468.75 312.5 468.75 328.125 468.75 343.75 468.75 359.375 468.75 375 468.75 390.625 468.75 406.25 468.75 421.875 468.75 421.875 453.125 437.5 453.125 437.5 437.5 437.5 421.875 437.5 406.25 437.5 390.625 437.5 375 437.5 359.375 437.5 343.75 437.5 328.125 437.5 312.5 437.5 296.875 437.5 281.25 437.5 265.625 437.5 250 437.5 234.375 437.5 218.75 437.5 203.125 437.5 187.5z" fill="#FFF"/></g><g id="change1_4"><path d="M421.875 187.5L406.25 187.5 390.625 187.5 375 187.5 359.375 187.5 343.75 187.5 328.125 187.5 312.5 187.5 296.875 187.5 281.25 187.5 265.625 187.5 250 187.5 234.375 187.5 218.75 187.5 203.125 187.5 187.5 187.5 171.875 187.5 156.25 187.5 140.625 187.5 125 187.5 109.375 187.5 93.75 187.5 78.125 187.5 62.5 187.5 46.875 187.5 31.25 187.5 31.25 203.125 31.25 218.75 31.25 234.375 31.25 250 31.25 265.625 31.25 281.25 31.25 296.875 31.25 312.5 31.25 328.125 31.25 343.75 46.875 343.75 62.5 343.75 78.125 343.75 93.75 343.75 109.375 343.75 125 343.75 140.625 343.75 140.625 359.375 156.25 359.375 156.25 375 156.25 390.625 156.25 406.25 156.25 421.875 156.25 437.5 156.25 453.125 156.25 468.75 171.875 468.75 187.5 468.75 203.125 468.75 218.75 468.75 234.375 468.75 250 468.75 265.625 468.75 281.25 468.75 296.875 468.75 312.5 468.75 328.125 468.75 343.75 468.75 359.375 468.75 375 468.75 390.625 468.75 406.25 468.75 421.875 468.75 421.875 453.125 437.5 453.125 437.5 437.5 437.5 421.875 437.5 406.25 437.5 390.625 437.5 375 437.5 359.375 437.5 343.75 437.5 328.125 437.5 312.5 437.5 296.875 437.5 281.25 437.5 265.625 437.5 250 437.5 234.375 437.5 218.75 437.5 203.125 437.5 187.5z" opacity=".1"/></g><g id="change4_1"><path d="M140.625,15.625h15.625V31.25v15.625V62.5v15.625V93.75h-15.625H125V78.125V62.5V46.875V31.25V15.625 H140.625z M328.125,15.625H312.5V31.25v15.625V62.5v15.625V93.75h15.625h15.625V78.125V62.5V46.875V31.25V15.625H328.125z" fill="#E5FF00"/></g><g id="change1_5"><path d="M250,218.75h-15.625H218.75h-15.625H187.5v15.625V250v15.625v15.625v15.625V312.5h15.625h15.625h15.625H250 h15.625h15.625v-15.625V281.25v-15.625V250v-15.625V218.75h-15.625H250z M390.625,218.75H375h-15.625H343.75h-15.625H312.5v15.625 V250v15.625v15.625v15.625V312.5h15.625h15.625h15.625H375h15.625h15.625v-15.625V281.25v-15.625V250v-15.625V218.75H390.625z M375,343.75h-15.625H343.75h-15.625H312.5v15.625V375v15.625v15.625v15.625V437.5h15.625h15.625h15.625H375h15.625h15.625v-15.625 V406.25v-15.625V375v-15.625V343.75h-15.625H375z M250,343.75h-15.625H218.75h-15.625H187.5v15.625V375v15.625v15.625v15.625V437.5 h15.625h15.625h15.625H250h15.625h15.625v-15.625V406.25v-15.625V375v-15.625V343.75h-15.625H250z M125,343.75v15.625h15.625V375 h15.625v-15.625h-15.625V343.75H125z M125,218.75h-15.625H93.75H78.125H62.5v15.625V250v15.625v15.625v15.625V312.5h15.625H93.75 h15.625H125h15.625h15.625v-15.625V281.25v-15.625V250v-15.625V218.75h-15.625H125z" opacity=".15"/></g><g id="change1_6"><path d="M78.125,281.25v15.625H62.5V281.25H78.125z M62.5,250v15.625h15.625V250H62.5z M62.5,218.75v15.625h15.625 V218.75H62.5z M78.125,296.875V312.5H93.75v-15.625H78.125z M78.125,265.625v15.625H93.75v-15.625H78.125z M78.125,234.375V250 H93.75v-15.625H78.125z M93.75,281.25v15.625h15.625V281.25H93.75z M93.75,250v15.625h15.625V250H93.75z M93.75,218.75v15.625 h15.625V218.75H93.75z M109.375,296.875V312.5H125v-15.625H109.375z M109.375,265.625v15.625H125v-15.625H109.375z M109.375,234.375V250H125v-15.625H109.375z M125,343.75v15.625h15.625V343.75H125z M125,281.25v15.625h15.625V281.25H125z M125,250v15.625h15.625V250H125z M125,218.75v15.625h15.625V218.75H125z M140.625,359.375V375h15.625v-15.625H140.625z M140.625,296.875V312.5h15.625v-15.625H140.625z M140.625,265.625v15.625h15.625v-15.625H140.625z M140.625,234.375V250h15.625 v-15.625H140.625z M187.5,406.25v15.625h15.625V406.25H187.5z M187.5,375v15.625h15.625V375H187.5z M187.5,343.75v15.625h15.625 V343.75H187.5z M187.5,296.875V312.5h15.625v-15.625H187.5z M187.5,265.625v15.625h15.625v-15.625H187.5z M187.5,234.375V250 h15.625v-15.625H187.5z M203.125,421.875V437.5h15.625v-15.625H203.125z M203.125,390.625v15.625h15.625v-15.625H203.125z M203.125,359.375V375h15.625v-15.625H203.125z M203.125,281.25v15.625h15.625V281.25H203.125z M203.125,250v15.625h15.625V250 H203.125z M203.125,218.75v15.625h15.625V218.75H203.125z M218.75,406.25v15.625h15.625V406.25H218.75z M218.75,375v15.625h15.625 V375H218.75z M218.75,343.75v15.625h15.625V343.75H218.75z M218.75,296.875V312.5h15.625v-15.625H218.75z M218.75,265.625v15.625 h15.625v-15.625H218.75z M218.75,234.375V250h15.625v-15.625H218.75z M234.375,421.875V437.5H250v-15.625H234.375z M234.375,390.625v15.625H250v-15.625H234.375z M234.375,359.375V375H250v-15.625H234.375z M234.375,281.25v15.625H250V281.25 H234.375z M234.375,250v15.625H250V250H234.375z M234.375,218.75v15.625H250V218.75H234.375z M250,406.25v15.625h15.625V406.25H250 z M250,375v15.625h15.625V375H250z M250,343.75v15.625h15.625V343.75H250z M250,296.875V312.5h15.625v-15.625H250z M250,265.625 v15.625h15.625v-15.625H250z M250,234.375V250h15.625v-15.625H250z M265.625,421.875V437.5h15.625v-15.625H265.625z M265.625,390.625v15.625h15.625v-15.625H265.625z M265.625,359.375V375h15.625v-15.625H265.625z M265.625,281.25v15.625h15.625 V281.25H265.625z M265.625,250v15.625h15.625V250H265.625z M265.625,218.75v15.625h15.625V218.75H265.625z M312.5,406.25v15.625 h15.625V406.25H312.5z M312.5,375v15.625h15.625V375H312.5z M312.5,343.75v15.625h15.625V343.75H312.5z M312.5,296.875V312.5 h15.625v-15.625H312.5z M312.5,265.625v15.625h15.625v-15.625H312.5z M312.5,234.375V250h15.625v-15.625H312.5z M328.125,421.875 V437.5h15.625v-15.625H328.125z M328.125,390.625v15.625h15.625v-15.625H328.125z M328.125,359.375V375h15.625v-15.625H328.125z M328.125,281.25v15.625h15.625V281.25H328.125z M328.125,250v15.625h15.625V250H328.125z M328.125,218.75v15.625h15.625V218.75 H328.125z M343.75,406.25v15.625h15.625V406.25H343.75z M343.75,375v15.625h15.625V375H343.75z M343.75,343.75v15.625h15.625 V343.75H343.75z M343.75,296.875V312.5h15.625v-15.625H343.75z M343.75,265.625v15.625h15.625v-15.625H343.75z M343.75,234.375V250 h15.625v-15.625H343.75z M359.375,421.875V437.5H375v-15.625H359.375z M359.375,390.625v15.625H375v-15.625H359.375z M359.375,359.375V375H375v-15.625H359.375z M359.375,281.25v15.625H375V281.25H359.375z M359.375,250v15.625H375V250H359.375z M359.375,218.75v15.625H375V218.75H359.375z M375,406.25v15.625h15.625V406.25H375z M375,375v15.625h15.625V375H375z M375,343.75 v15.625h15.625V343.75H375z M375,296.875V312.5h15.625v-15.625H375z M375,265.625v15.625h15.625v-15.625H375z M375,234.375V250 h15.625v-15.625H375z M390.625,421.875V437.5h15.625v-15.625H390.625z M390.625,390.625v15.625h15.625v-15.625H390.625z M390.625,359.375V375h15.625v-15.625H390.625z M390.625,281.25v15.625h15.625V281.25H390.625z M390.625,250v15.625h15.625V250 H390.625z M390.625,218.75v15.625h15.625V218.75H390.625z" opacity=".15"/></g><g id="change5_1"><path d="M437.5,78.125V93.75v15.625V125v15.625v15.625v15.625h-15.625H406.25h-15.625H375h-15.625H343.75h-15.625 H312.5h-15.625H281.25h-15.625H250h-15.625H218.75h-15.625H187.5h-15.625H156.25h-15.625H125h-15.625H93.75H78.125H62.5H46.875 H31.25V156.25v-15.625V125v-15.625V93.75V78.125h15.625V62.5H62.5h15.625H93.75h15.625v15.625V93.75H125v15.625h15.625h15.625 V93.75h15.625V78.125V62.5H187.5h15.625h15.625h15.625H250h15.625h15.625h15.625v15.625V93.75H312.5v15.625h15.625h15.625V93.75 h15.625V78.125V62.5H375h15.625h15.625h15.625v15.625H437.5z" fill="#FB0800"/></g><g id="change1_7"><path d="M46.875,453.125v15.625H31.25v-15.625H46.875z M46.875,62.5H31.25v15.625h15.625V62.5z M62.5,390.625V375H46.875v15.625 H62.5z M62.5,390.625v15.625h15.625v-15.625H62.5z M78.125,62.5H93.75h15.625v15.625V93.75H125V78.125V62.5V46.875V31.25V15.625 h-15.625V31.25v15.625H93.75H78.125H62.5H46.875V62.5H62.5H78.125z M78.125,406.25v15.625H93.75V406.25H78.125z M93.75,421.875 V437.5h15.625v-15.625H93.75z M109.375,437.5v15.625H125V437.5H109.375z M140.625,375v-15.625H125V375H140.625z M125,93.75v15.625 h15.625h15.625V93.75h-15.625H125z M156.25,15.625V0h-15.625H125v15.625h15.625H156.25z M156.25,46.875V62.5v15.625V93.75h15.625 V78.125V62.5H187.5h15.625h15.625h15.625H250h15.625h15.625h15.625v15.625V93.75H312.5V78.125V62.5V46.875V31.25V15.625h-15.625 V31.25v15.625H281.25h-15.625H250h-15.625H218.75h-15.625H187.5h-15.625V31.25V15.625H156.25V31.25V46.875z M312.5,93.75v15.625 h15.625h15.625V93.75h-15.625H312.5z M343.75,15.625V0h-15.625H312.5v15.625h15.625H343.75z M343.75,46.875V62.5v15.625V93.75 h15.625V78.125V62.5H375h15.625h15.625h15.625V46.875H406.25h-15.625H375h-15.625V31.25V15.625H343.75V31.25V46.875z M390.625,468.75H375h-15.625H343.75h-15.625H312.5h-15.625H281.25h-15.625H250h-15.625H218.75h-15.625H187.5h-15.625H156.25 v-15.625V437.5v-15.625V406.25v-15.625V375h-15.625v15.625v15.625v15.625V437.5v15.625H125v15.625h-15.625H93.75H78.125H62.5 H46.875v15.625H62.5h15.625H93.75h15.625H125h15.625h15.625h15.625H187.5h15.625h15.625h15.625H250h15.625h15.625h15.625H312.5 h15.625h15.625h15.625H375h15.625h15.625h15.625V468.75H406.25H390.625z M421.875,468.75H437.5v-15.625h-15.625V468.75z M437.5,78.125V62.5h-15.625v15.625H437.5z M437.5,78.125V93.75v15.625V125v15.625v15.625v15.625h-15.625H406.25h-15.625H375 h-15.625H343.75h-15.625H312.5h-15.625H281.25h-15.625H250h-15.625H218.75h-15.625H187.5h-15.625H156.25h-15.625H125h-15.625H93.75 H78.125H62.5H46.875H31.25V156.25v-15.625V125v-15.625V93.75V78.125H15.625V93.75v15.625V125v15.625v15.625v15.625V187.5v15.625 v15.625v15.625V250v15.625v15.625v15.625V312.5v15.625v15.625v15.625V375v15.625v15.625v15.625V437.5v15.625H31.25V437.5v-15.625 V406.25v-15.625V375h15.625v-15.625H62.5h15.625H93.75h15.625H125V343.75h-15.625H93.75H78.125H62.5H46.875H31.25v-15.625V312.5 v-15.625V281.25v-15.625V250v-15.625V218.75v-15.625V187.5h15.625H62.5h15.625H93.75h15.625H125h15.625h15.625h15.625H187.5h15.625 h15.625h15.625H250h15.625h15.625h15.625H312.5h15.625h15.625h15.625H375h15.625h15.625h15.625H437.5v15.625v15.625v15.625V250 v15.625v15.625v15.625V312.5v15.625v15.625v15.625V375v15.625v15.625v15.625V437.5v15.625h15.625V437.5v-15.625V406.25v-15.625V375 v-15.625V343.75v-15.625V312.5v-15.625V281.25v-15.625V250v-15.625V218.75v-15.625V187.5v-15.625V156.25v-15.625V125v-15.625V93.75 V78.125H437.5z"/></g><g id="change1_8"><path d="M46.875,156.25v-15.625V125v-15.625V93.75V78.125H31.25V93.75v15.625V125v15.625v15.625v15.625h15.625 V156.25z M296.875,125H312.5h15.625v-15.625H312.5V93.75h-15.625V78.125V62.5H281.25v15.625V93.75v15.625h15.625V125z M125,93.75 h-15.625V78.125V62.5H93.75v15.625V93.75v15.625h15.625V125H125h15.625v-15.625H125V93.75z" opacity=".3"/></g><g id="change1_9"><path d="M46.875,328.125V312.5v-15.625V281.25v-15.625V250v-15.625V218.75v-15.625V187.5H31.25v15.625v15.625v15.625 V250v15.625v15.625v15.625V312.5v15.625v15.625h15.625V328.125z M406.25,453.125h-15.625H375h-15.625H343.75h-15.625H312.5h-15.625 H281.25h-15.625H250h-15.625H218.75h-15.625H187.5h-15.625H156.25v15.625h15.625H187.5h15.625h15.625h15.625H250h15.625h15.625 h15.625H312.5h15.625h15.625h15.625H375h15.625h15.625h15.625v-15.625H406.25z" opacity=".3"/></g><g id="change1_10"><path d="M109.375,453.125H125v15.625h-15.625V453.125z M31.25,375v15.625h15.625V375H31.25z M46.875,390.625v15.625 H62.5v-15.625H46.875z M93.75,437.5v15.625h15.625V437.5H93.75z M78.125,421.875V437.5H93.75v-15.625H78.125z M62.5,406.25v15.625 h15.625V406.25H62.5z" opacity=".3"/></g><g id="change2_3"><path d="M125,15.625V31.25h15.625v15.625V62.5v15.625V93.75h15.625 V78.125V62.5V46.875V31.25V15.625h-15.625H125z M312.5,15.625V31.25h15.625v15.625V62.5v15.625V93.75h15.625V78.125V62.5V46.875 V31.25V15.625h-15.625H312.5z" fill="#FFF" opacity=".9"/></g><g id="change2_4"><path d="M78.125,62.5H93.75v15.625H78.125H62.5H46.875V62.5H62.5H78.125z M250,62.5h-15.625H218.75 h-15.625H187.5h-15.625v15.625H187.5h15.625h15.625h15.625H250h15.625h15.625V62.5h-15.625H250z M421.875,78.125V62.5H406.25 h-15.625H375h-15.625v15.625H375h15.625h15.625V93.75h15.625v15.625V125v15.625v15.625v15.625H437.5V156.25v-15.625V125v-15.625 V93.75V78.125H421.875z" fill="#FFF" opacity=".5"/></g><g id="change2_5"><path d="M125,375h15.625v15.625v15.625v15.625V437.5v15.625H125V437.5v-15.625V406.25v-15.625h-15.625V375v-15.625 H125V375z M421.875,203.125v15.625v15.625V250v15.625v15.625v15.625V312.5v15.625v15.625v15.625V375v15.625v15.625v15.625V437.5 v15.625H437.5V437.5v-15.625V406.25v-15.625V375v-15.625V343.75v-15.625V312.5v-15.625V281.25v-15.625V250v-15.625V218.75v-15.625 V187.5h-15.625V203.125z" fill="#FFF"/></g></g></svg>