<?xml version="1.0" encoding="UTF-8"?><svg xmlns="http://www.w3.org/2000/svg" xmlns:xlink="http://www.w3.org/1999/xlink" height="362.5" preserveAspectRatio="xMidYMid meet" version="1.0" viewBox="0.0 0.0 212.5 362.5" width="212.5" zoomAndPan="magnify"><g id="change1_1"><path d="M200 200L200 187.5 187.5 187.5 187.5 175 175 175 175 162.5 162.5 162.5 162.5 150 150 150 150 137.5 137.5 137.5 137.5 125 125 125 125 112.5 112.5 112.5 112.5 100 100 100 100 87.5 87.5 87.5 87.5 75 75 75 75 62.5 62.5 62.5 62.5 50 50 50 50 37.5 37.5 37.5 37.5 25 25 25 25 12.5 12.5 12.5 12.5 0 0 0 0 12.5 0 25 0 37.5 0 50 0 62.5 0 75 0 87.5 0 100 0 112.5 0 125 0 137.5 0 150 0 162.5 0 175 0 187.5 0 200 0 212.5 0 225 0 237.5 0 250 0 262.5 0 275 0 287.5 0 300 12.5 300 25 300 25 287.5 37.5 287.5 37.5 275 50 275 50 262.5 62.5 262.5 62.5 250 75 250 75 262.5 87.5 262.5 87.5 287.5 100 287.5 100 312.5 112.5 312.5 112.5 337.5 125 337.5 125 350 125 362.5 137.5 362.5 150 362.5 150 350 162.5 350 162.5 337.5 175 337.5 175 312.5 162.5 312.5 162.5 287.5 150 287.5 150 262.5 137.5 262.5 137.5 237.5 125 237.5 125 225 137.5 225 150 225 162.5 225 175 225 187.5 225 200 225 212.5 225 212.5 212.5 212.5 200z"/></g><g id="change2_1"><path d="M12.5 25L25 25 200 200 200 212.5 112.5 212.5 162.5 312.5 162.5 350 137.5 350 125 337.5 87.5 262.5 75 250 62.5 250 25 287.5 12.5 287.5z" fill="#d1d3d4"/></g><g id="change3_1"><path d="M37.5,37.5V50H25V37.5H37.5z M37.5,50v12.5H50V50H37.5z M50,62.5V75h12.5V62.5H50z M62.5,75v12.5H75V75H62.5z M75,87.5V100h12.5V87.5H75z M87.5,100v12.5H100V100H87.5z M100,112.5V125h12.5v-12.5H100z M112.5,125v12.5H125V125H112.5z M125,137.5V150h12.5v-12.5H125z M137.5,150v12.5H150V150H137.5z M150,162.5V175h12.5v-12.5H150z M162.5,175v12.5H175V175H162.5z M200,200h-12.5v-12.5H175V200h-62.5v12.5H200V200z M125,262.5v-25h-12.5v25H125z M100,212.5v25h12.5v-25H100z M137.5,287.5v-25H125 v25H137.5z M150,312.5v-25h-12.5v25H150z M162.5,337.5v-25H150v25H162.5z" fill="#fff"/></g><g id="change1_2"><path d="M25,37.5V25h12.5v12.5H25z M50,50V37.5H37.5V50H50z M62.5,62.5V50H50v12.5H62.5z M75,75V62.5H62.5V75H75z M87.5,87.5V75H75 v12.5H87.5z M100,100V87.5H87.5V100H100z M112.5,112.5V100H100v12.5H112.5z M125,125v-12.5h-12.5V125H125z M137.5,137.5V125H125 v12.5H137.5z M150,150v-12.5h-12.5V150H150z M162.5,162.5V150H150v12.5H162.5z M175,175v-12.5h-12.5V175H175z M187.5,187.5V175H175 v12.5H187.5z M200,200v-12.5h-12.5V200H200z M200,200v12.5h-12.5H175h-12.5H150h-12.5H125h-12.5V225v12.5v0H125v25h12.5v-25H125V225 h12.5H150h12.5H175h12.5H200h12.5v-12.5V200H200z M50,262.5h12.5V250H50V262.5z M75,237.5H62.5V250H75v12.5h12.5v-25H75z M37.5,275 H50v-12.5H37.5V275z M87.5,262.5v25H100v-25H87.5z M12.5,275v-12.5V250v-12.5V225v-12.5V200v-12.5V175v-12.5V150v-12.5V125v-12.5 V100V87.5V75V62.5V50V37.5V25H25V12.5H12.5V0H0v12.5V25v12.5V50v12.5V75v12.5V100v12.5V125v12.5V150v12.5V175v12.5V200v12.5V225 v12.5V250v12.5V275v12.5V300h12.5H25v-12.5H12.5V275z M25,287.5h12.5V275H25V287.5z M100,287.5v25h12.5v-25H100z M150,287.5v-25 h-12.5v25H150z M162.5,312.5v-25H150v25H162.5z M112.5,312.5v25H125v-25H112.5z M175,337.5v-25h-12.5v25H175z M137.5,337.5H125V350 v12.5h12.5H150V350h-12.5V337.5z M150,350h12.5v-12.5H150V350z"/></g><g id="change1_3"><path d="M37.5,250H50v12.5H37.5V250z M50,250h12.5v-12.5H50V250z M62.5,225v12.5h25V225H62.5z M87.5,237.5v25H100v-25 H87.5z M100,262.5v25h12.5v-25H100z M112.5,287.5v25H125v-25H112.5z M125,312.5v25h12.5v-25H125z M137.5,337.5V350H150v-12.5H137.5z M25,25H12.5v262.5H25V275h12.5v-12.5H25V25z" opacity=".3"/></g></svg>